<?xml version="1.0" standalone="no"?>
<!DOCTYPE svg PUBLIC "-//W3C//DTD SVG 20010904//EN"
 "http://www.w3.org/TR/2001/REC-SVG-20010904/DTD/svg10.dtd">
<svg version="1.0" xmlns="http://www.w3.org/2000/svg"
 width="1024.000000pt" height="1024.000000pt" viewBox="0 0 1024.000000 1024.000000"
 preserveAspectRatio="xMidYMid meet">

<g transform="translate(0.000000,1024.000000) scale(0.100000,-0.100000)"
fill="#000000" stroke="none">
<path d="M4548 10230 c-2 -5 -81 -12 -177 -15 -96 -3 -177 -8 -180 -10 -2 -3
5 -5 16 -5 29 0 35 -11 15 -27 -15 -13 -15 -14 0 -10 24 8 30 -4 14 -29 -16
-23 -12 -36 9 -28 7 3 16 0 21 -7 5 -8 3 -10 -6 -4 -9 5 -11 4 -6 -4 6 -9 11
-9 22 0 8 7 14 7 14 1 0 -18 -25 -29 -55 -25 -22 2 -26 1 -15 -6 8 -6 30 -8
48 -5 46 7 72 -3 72 -30 0 -12 6 -28 12 -34 10 -10 16 -8 30 10 17 22 19 22
32 6 18 -24 24 -23 48 7 17 22 21 23 34 11 20 -21 17 -28 -7 -21 -15 5 -19 4
-15 -4 4 -6 3 -11 -2 -11 -5 0 -15 -11 -22 -25 -16 -29 -34 -34 -25 -6 8 26
-11 35 -36 17 -12 -8 -28 -12 -35 -9 -8 3 -14 0 -14 -6 0 -6 -8 -11 -17 -12
-14 0 -15 -2 -3 -6 21 -9 40 -36 31 -46 -4 -4 -15 -5 -25 -1 -13 5 -14 9 -5
20 8 10 8 14 1 14 -15 0 -35 -38 -27 -50 3 -6 -3 -10 -13 -10 -11 0 -22 7 -26
15 -3 8 -2 14 2 14 24 -4 35 2 25 12 -8 8 -17 7 -34 -5 -13 -9 -31 -16 -41
-16 -37 0 -16 -18 27 -25 25 -3 43 -10 40 -16 -4 -5 -1 -9 5 -9 6 0 8 -4 5
-10 -10 -16 -45 -12 -45 5 0 10 -10 15 -29 15 -37 0 -81 16 -81 30 0 5 10 10
23 10 21 1 21 1 4 15 -11 7 -25 11 -33 8 -10 -4 -12 0 -8 11 5 12 0 16 -17 17
l-24 0 27 21 28 22 -38 18 c-33 15 -34 17 -12 18 19 0 22 2 10 10 -8 5 -11 12
-7 16 3 4 13 1 21 -5 11 -9 9 -1 -5 29 -11 22 -17 45 -14 50 3 6 2 10 -4 10
-5 0 -11 -6 -14 -12 -4 -10 -7 -10 -18 0 -10 9 -10 15 -2 23 9 9 8 16 -4 27
-14 14 -13 17 3 29 16 12 17 15 4 23 -17 11 -189 14 -214 4 -20 -8 -21 -34 -1
-34 8 0 15 -4 15 -10 0 -5 -5 -10 -11 -10 -15 0 -41 28 -35 38 3 5 -11 8 -29
8 -40 -1 -49 -26 -10 -26 14 0 25 -4 25 -10 0 -5 -16 -10 -35 -10 -19 0 -35
-4 -35 -10 0 -5 9 -10 20 -10 11 0 20 -4 20 -10 0 -5 -9 -10 -20 -10 -11 0
-20 -5 -20 -11 0 -8 11 -9 31 -5 30 6 31 5 26 -21 -5 -24 -2 -28 17 -29 19 -1
22 2 18 27 -3 17 0 29 7 29 6 0 11 -9 11 -19 0 -15 7 -19 33 -17 28 1 32 -2
30 -21 -3 -23 11 -31 22 -13 3 6 16 10 28 9 15 0 17 -2 7 -6 -31 -12 -42 -25
-28 -35 8 -6 4 -7 -11 -3 -20 6 -23 4 -18 -10 4 -9 7 -28 7 -41 0 -13 5 -23
12 -22 6 2 15 -8 19 -22 6 -23 7 -22 9 10 2 32 3 33 9 10 8 -27 29 -31 86 -15
27 7 29 7 17 -8 -12 -13 -10 -16 15 -20 27 -4 27 -4 -4 -6 -31 -1 -51 -26 -45
-58 2 -7 -6 -13 -17 -13 -28 0 -52 -11 -45 -21 8 -13 62 -11 66 3 3 7 7 6 11
-5 3 -9 2 -17 -4 -17 -6 0 -7 -5 -3 -11 3 -6 0 -15 -7 -20 -11 -7 -10 -11 6
-23 16 -12 18 -17 8 -27 -7 -7 -13 -17 -13 -23 0 -5 7 -1 16 10 11 13 17 15
20 7 3 -7 12 -13 20 -13 16 0 19 -16 4 -25 -22 -14 -10 -35 20 -35 20 0 30 5
30 15 0 17 16 20 25 5 3 -5 -5 -15 -19 -22 -14 -6 -26 -15 -26 -20 0 -4 -7 -8
-15 -8 -8 0 -15 -7 -15 -15 0 -18 37 -20 43 -2 2 6 2 -1 -1 -18 -3 -16 -5 -38
-4 -47 0 -13 -7 -18 -29 -18 -16 0 -29 -5 -29 -11 0 -7 -12 -10 -30 -7 -16 3
-30 1 -30 -4 0 -4 9 -8 21 -8 19 0 19 -1 4 -17 -10 -9 -33 -20 -54 -24 l-36
-7 43 -1 c23 0 42 4 42 9 0 6 6 10 14 10 8 0 18 10 21 21 6 18 13 21 46 16 30
-4 41 -1 48 11 7 13 13 14 21 5 9 -8 7 -13 -9 -18 -16 -5 -20 -12 -16 -31 3
-13 7 -35 10 -48 3 -15 0 -26 -10 -30 -8 -3 -16 -1 -16 4 -1 6 -3 15 -4 20 -1
6 -3 24 -4 41 0 16 -5 28 -10 25 -5 -3 -7 -16 -3 -28 3 -14 2 -19 -6 -14 -7 4
-12 16 -12 27 0 20 -15 26 -25 9 -12 -19 6 -50 28 -51 16 -1 12 -4 -12 -10
-38 -12 -49 -6 -31 16 10 13 9 15 -8 15 -12 0 -24 -5 -28 -11 -3 -6 -15 -9
-25 -6 -11 3 -19 1 -19 -4 0 -5 -10 -9 -22 -9 -13 0 -36 -7 -52 -15 -24 -13
-31 -13 -37 -3 -4 7 -16 23 -27 35 l-19 23 -11 -26 c-7 -14 -18 -24 -24 -23
-7 1 -26 -3 -43 -10 -23 -10 -26 -14 -15 -21 8 -6 11 -10 6 -10 -5 0 -25 10
-44 22 -34 21 -35 22 -14 31 32 14 28 37 -5 36 -27 -1 -28 -1 -4 -8 l24 -7
-26 -17 c-33 -22 -35 -22 -39 5 -3 20 -8 23 -43 20 -39 -3 -65 -23 -65 -49 0
-7 4 -13 9 -13 5 0 8 8 7 17 -2 28 53 33 81 7 25 -23 31 -40 11 -28 -7 4 -10
3 -5 -1 4 -5 24 -9 45 -9 30 -1 38 -5 40 -22 2 -12 -5 -29 -14 -39 -15 -14
-15 -18 -3 -26 8 -5 20 -6 28 -4 8 3 18 0 22 -6 4 -6 12 -8 19 -4 8 5 6 13 -9
26 -25 23 -26 29 -7 29 7 0 16 -9 19 -20 3 -11 10 -20 17 -20 7 0 9 9 5 23 -5
19 -4 20 5 5 8 -13 8 -23 1 -35 -6 -10 -11 -13 -11 -8 -1 6 -8 -10 -15 -35
-15 -46 -14 -57 4 -45 6 3 11 19 11 36 0 16 5 29 10 29 6 0 10 -9 10 -21 0
-17 5 -20 28 -16 15 2 21 2 13 -1 -12 -3 -12 -5 0 -13 12 -8 12 -10 0 -18 -7
-5 -10 -14 -7 -20 5 -8 0 -8 -19 -1 -34 13 -30 15 -64 -22 -33 -36 -32 -48 5
-48 27 0 29 -24 3 -26 -32 -2 -39 -4 -38 -11 3 -20 -2 -24 -16 -13 -13 11 -19
8 -40 -14 -28 -30 -33 -45 -9 -26 8 8 29 15 46 17 31 3 31 3 12 -18 l-19 -21
38 21 c46 26 47 26 47 0 0 -12 5 -19 13 -16 6 2 11 11 9 19 -1 11 8 17 27 20
27 4 30 1 34 -26 3 -28 4 -28 5 7 2 26 7 37 17 37 12 0 13 -4 5 -19 -13 -25
-13 -41 0 -41 5 0 12 15 16 34 5 30 11 35 38 39 28 4 29 5 9 12 -27 9 -23 18
20 41 37 19 116 26 135 12 8 -7 12 -7 12 1 0 6 7 11 15 11 8 0 15 -4 15 -9 0
-5 9 -13 20 -16 22 -7 27 -23 8 -22 -46 1 -58 -4 -57 -25 1 -19 2 -20 6 -4 4
14 11 17 33 12 19 -3 30 -1 34 9 3 9 17 14 33 14 24 -2 25 -2 6 -6 -13 -2 -23
-8 -23 -12 0 -5 11 -6 24 -4 17 4 25 0 29 -14 4 -16 5 -16 6 0 1 21 21 22 47
2 18 -14 18 -14 -8 -15 -16 0 -28 -4 -28 -9 0 -5 -3 -18 -6 -28 -6 -17 -6 -17
8 1 10 13 22 17 38 13 14 -4 29 1 43 14 13 12 29 17 41 13 17 -4 18 -3 6 5
-13 9 -13 11 3 11 23 0 22 17 -3 30 -11 6 -20 14 -20 18 0 9 59 32 83 32 9 0
19 5 22 11 5 7 -8 9 -37 7 -28 -2 -42 -7 -41 -15 2 -9 -9 -13 -35 -12 -23 1
-28 3 -14 6 13 3 22 12 22 23 0 30 12 53 20 40 4 -6 25 -13 48 -15 23 -2 46
-6 52 -10 5 -3 10 -2 10 4 0 6 6 8 14 5 7 -3 16 2 19 10 5 12 10 13 31 3 14
-7 26 -18 26 -26 0 -8 3 -11 7 -8 3 4 12 2 19 -4 8 -6 21 -9 29 -5 9 3 14 2
10 -3 -3 -5 -2 -16 1 -25 5 -13 10 -14 20 -5 7 6 19 7 25 3 8 -5 9 -3 5 5 -5
7 -15 10 -23 7 -11 -5 -13 1 -9 29 6 33 0 41 -27 36 -5 -1 -6 3 -2 9 7 12 45
-5 45 -20 0 -6 7 -10 15 -10 8 0 15 7 15 15 0 8 -5 15 -12 15 -6 0 -9 2 -6 5
9 9 38 -6 38 -20 0 -16 22 -25 61 -25 23 0 29 5 30 23 1 18 2 18 6 4 5 -18 5
-18 18 0 13 17 14 17 33 0 19 -18 21 -18 31 0 9 17 10 17 25 -2 22 -29 15 -39
-30 -46 -21 -3 -32 -7 -24 -8 9 -2 3 -9 -15 -17 -25 -13 -26 -14 -5 -9 65 16
105 29 110 34 3 3 12 7 20 7 29 2 190 56 186 63 -2 3 12 7 33 7 20 1 79 15
131 32 52 17 167 51 255 77 88 25 223 65 300 89 77 24 203 63 280 86 77 23
201 62 275 85 74 24 198 62 275 85 77 23 187 57 245 75 97 31 431 131 630 188
158 46 521 157 575 176 l53 19 20 -23 c11 -12 21 -26 23 -31 6 -14 110 -185
198 -324 44 -69 133 -213 199 -320 66 -107 139 -226 163 -265 108 -176 379
-622 447 -735 75 -125 88 -147 154 -250 20 -30 64 -102 98 -160 35 -58 80
-130 101 -161 21 -31 101 -159 177 -285 76 -126 161 -263 187 -304 26 -41 82
-133 123 -205 41 -71 81 -139 88 -150 12 -17 14 232 14 1663 l0 1682 -2430 0
c-1692 0 -2430 -3 -2430 -11 0 -5 -6 -7 -12 -3 -18 11 -409 14 -402 3 3 -5 1
-9 -5 -9 -5 0 -12 6 -15 13 -4 7 -8 8 -11 2 -3 -5 -24 -9 -47 -8 -171 10 -337
11 -340 3z m299 -16 c-3 -3 -12 -4 -19 -1 -8 3 -5 6 6 6 11 1 17 -2 13 -5z
m-470 -32 c-15 -2 -25 -8 -22 -13 7 -11 3 -11 -21 -2 -14 5 -11 9 17 18 19 7
39 10 44 6 6 -3 -2 -7 -18 -9z m-92 -15 c0 -12 -19 -37 -28 -37 -3 0 0 13 6
30 11 28 22 31 22 7z m382 17 c-3 -3 -12 -4 -19 -1 -8 3 -5 6 6 6 11 1 17 -2
13 -5z m-828 -29 c18 5 21 2 21 -21 0 -22 -3 -25 -12 -16 -7 7 -20 12 -30 12
-12 0 -18 7 -18 23 0 16 3 18 9 8 5 -8 16 -11 30 -6z m576 -12 c-2 -10 -4 -20
-4 -23 -1 -3 -5 2 -11 10 -6 9 -5 17 3 22 16 10 16 10 12 -9z m255 -3 c0 -5
-4 -10 -9 -10 -6 0 -13 5 -16 10 -3 6 1 10 9 10 9 0 16 -4 16 -10z m-206 -25
c7 -19 -3 -45 -17 -45 -7 0 -7 4 1 12 17 17 15 28 -4 28 -8 0 -12 5 -9 10 9
15 22 12 29 -5z m74 -48 c25 -4 25 -4 -4 -6 -26 -1 -33 3 -38 24 -4 14 -3 31
1 38 5 7 9 0 11 -20 3 -26 8 -33 30 -36z m-638 43 c8 -5 11 -10 5 -10 -5 0
-17 5 -25 10 -8 5 -10 10 -5 10 6 0 17 -5 25 -10z m125 -31 c4 -17 4 -33 1
-36 -3 -4 -6 -1 -6 5 0 6 -20 14 -45 18 -25 3 -45 10 -45 14 0 5 10 6 21 3 14
-4 25 0 31 11 14 26 36 19 43 -15z m45 -14 c0 -19 -4 -35 -10 -35 -5 0 -10 16
-10 35 0 19 5 35 10 35 6 0 10 -16 10 -35z m283 20 c-3 -17 -30 -17 -37 0 -4
13 -1 16 17 13 12 -2 21 -7 20 -13z m72 -27 c6 -13 17 -22 24 -20 7 1 10 -2 6
-8 -3 -5 -10 -10 -14 -10 -16 0 -48 35 -44 48 7 18 17 15 28 -10z m172 -4 c-3
-3 -12 -4 -19 -1 -8 3 -5 6 6 6 11 1 17 -2 13 -5z m8 -18 c48 -5 51 -6 35 -16
-8 -5 -23 -7 -32 -4 -15 4 -18 -1 -19 -28 -1 -27 -3 -29 -6 -8 -7 37 -23 52
-50 45 -13 -3 -23 -2 -23 3 0 17 15 23 40 17 14 -3 39 -7 55 -9z m-47 -28 c16
-16 15 -28 0 -28 -22 0 -41 17 -34 29 9 14 19 14 34 -1z m-608 -18 c0 -5 -4
-10 -10 -10 -5 0 -10 5 -10 10 0 6 5 10 10 10 6 0 10 -4 10 -10z m150 -10 c0
-5 -4 -10 -10 -10 -5 0 -10 5 -10 10 0 6 5 10 10 10 6 0 10 -4 10 -10z m446
-6 c13 -3 24 -10 24 -15 0 -12 -3 -11 -36 6 -16 8 -38 12 -49 9 -16 -4 -17 -3
-5 5 8 6 21 9 28 6 8 -3 25 -8 38 -11z m-533 -1 c-7 -2 -19 -2 -25 0 -7 3 -2
5 12 5 14 0 19 -2 13 -5z m663 -7 c15 -16 18 -26 6 -26 -4 0 -13 9 -20 20 -14
23 -7 26 14 6z m-280 -28 c-9 -5 -23 -5 -32 0 -12 6 -7 9 16 9 23 0 28 -3 16
-9z m214 -8 c0 -5 -2 -10 -4 -10 -3 0 -8 5 -11 10 -3 6 -1 10 4 10 6 0 11 -4
11 -10z m85 -10 c13 11 19 10 36 -8 16 -18 18 -26 9 -42 -6 -11 -16 -20 -22
-20 -9 0 -9 3 0 12 20 20 14 38 -14 38 -21 0 -25 -4 -21 -20 4 -17 0 -20 -23
-20 -16 0 -32 5 -36 11 -4 8 0 9 15 4 27 -8 42 23 17 37 -9 5 -13 14 -10 20 5
7 12 5 20 -7 11 -15 16 -16 29 -5z m-275 6 c0 -3 -4 -8 -10 -11 -5 -3 -10 -1
-10 4 0 6 5 11 10 11 6 0 10 -2 10 -4z m128 -28 c-2 -12 -8 -23 -14 -25 -7 -2
-10 6 -7 22 6 30 26 34 21 3z m53 -37 l21 -19 -22 -12 c-18 -9 -20 -14 -9 -21
7 -4 10 -11 6 -16 -14 -14 -26 19 -14 40 9 15 9 21 0 24 -13 5 -18 23 -8 23 3
0 15 -9 26 -19z m-527 -16 c-6 -16 -34 -21 -34 -7 0 13 11 22 26 22 8 0 11 -6
8 -15z m47 -18 c-13 -13 -26 -3 -16 12 3 6 11 8 17 5 6 -4 6 -10 -1 -17z m626
-17 c1 -10 -1 -21 -5 -24 -4 -2 -7 9 -7 25 -1 31 7 30 12 -1z m-652 0 c3 -5
-1 -10 -10 -10 -9 0 -13 5 -10 10 3 6 8 10 10 10 2 0 7 -4 10 -10z m375 -10
c0 -5 -2 -10 -4 -10 -3 0 -8 5 -11 10 -3 6 -1 10 4 10 6 0 11 -4 11 -10z m196
-26 c-4 -9 -9 -15 -11 -12 -3 3 -3 13 1 22 4 9 9 15 11 12 3 -3 3 -13 -1 -22z
m-306 6 c-8 -5 -19 -10 -25 -10 -5 0 -3 5 5 10 8 5 20 10 25 10 6 0 3 -5 -5
-10z m-236 -25 c4 -11 -1 -15 -19 -15 -35 0 -32 -28 3 -33 25 -4 25 -4 -5 -6
-22 0 -40 6 -54 20 -23 23 -23 24 11 38 36 14 57 13 64 -4z m31 -5 c3 -5 1
-10 -4 -10 -6 0 -11 5 -11 10 0 6 2 10 4 10 3 0 8 -4 11 -10z m135 -50 c0 -5
-5 -10 -11 -10 -5 0 -7 5 -4 10 3 6 8 10 11 10 2 0 4 -4 4 -10z m-173 -40
c-13 -21 -27 -26 -27 -10 0 6 5 10 10 10 6 0 10 7 10 16 0 8 4 12 10 9 6 -4 5
-13 -3 -25z m38 -139 c7 -12 -12 -24 -25 -16 -11 7 -4 25 10 25 5 0 11 -4 15
-9z m195 -61 c0 -5 -4 -10 -10 -10 -5 0 -10 5 -10 10 0 6 5 10 10 10 6 0 10
-4 10 -10z m-157 -37 c-7 -3 -13 -11 -13 -19 0 -9 -5 -12 -11 -9 -7 5 -4 14 7
26 9 11 20 16 23 13 3 -4 0 -9 -6 -11z m-178 -63 c3 -5 15 -10 26 -10 10 0 19
-4 19 -10 0 -5 -9 -10 -20 -10 -16 0 -19 -5 -14 -24 3 -14 1 -27 -6 -31 -9 -5
-10 -1 -5 16 7 22 6 23 -9 10 -15 -13 -19 -13 -26 -1 -7 11 -14 12 -36 2 -14
-7 -29 -10 -32 -7 -3 3 -1 5 5 5 6 0 14 15 18 33 4 17 9 26 12 20 7 -18 33
-16 33 2 0 17 25 20 35 5z m235 6 c0 -3 -4 -8 -10 -11 -5 -3 -10 -1 -10 4 0 6
5 11 10 11 6 0 10 -2 10 -4z m1060 -6 c0 -5 -4 -10 -10 -10 -5 0 -10 5 -10 10
0 6 5 10 10 10 6 0 10 -4 10 -10z m-1470 -10 c8 -5 11 -12 7 -16 -4 -4 -15 0
-24 9 -18 18 -8 23 17 7z m270 -6 c0 -2 -7 -4 -15 -4 -8 0 -15 4 -15 10 0 5 7
7 15 4 8 -4 15 -8 15 -10z m-322 -1 c-10 -2 -26 -2 -35 0 -10 3 -2 5 17 5 19
0 27 -2 18 -5z m360 -10 c-10 -2 -18 -9 -18 -14 0 -5 -7 -9 -15 -9 -8 0 -15 4
-15 9 0 10 24 19 50 19 10 0 9 -2 -2 -5z m-381 -29 c-3 -3 -16 -4 -29 -2 l-23
5 25 10 c23 10 41 1 27 -13z m43 16 c0 -5 -4 -10 -10 -10 -5 0 -10 5 -10 10 0
6 5 10 10 10 6 0 10 -4 10 -10z m1500 6 c0 -3 -4 -8 -10 -11 -5 -3 -10 -1 -10
4 0 6 5 11 10 11 6 0 10 -2 10 -4z m-16 -34 c3 -5 -1 -9 -9 -9 -8 0 -15 4 -15
9 0 4 4 8 9 8 6 0 12 -4 15 -8z m-1469 -12 c-3 -5 -11 -10 -16 -10 -6 0 -7 5
-4 10 3 6 11 10 16 10 6 0 7 -4 4 -10z m1541 -5 c-19 -14 -36 -12 -36 6 0 5
12 9 28 9 26 -1 26 -1 8 -15z m-1500 -15 c8 0 14 -4 14 -8 0 -4 -9 -8 -19 -8
-11 0 -17 5 -14 10 4 5 -1 7 -12 2 -16 -6 -16 -4 -4 10 8 10 15 12 17 5 2 -6
10 -11 18 -11z m1564 16 c0 -11 -19 -15 -25 -6 -3 5 1 10 9 10 9 0 16 -2 16
-4z m-1720 -16 c0 -5 -4 -10 -10 -10 -5 0 -10 5 -10 10 0 6 5 10 10 10 6 0 10
-4 10 -10z m245 0 c13 -5 14 -9 5 -9 -8 0 -24 4 -35 9 -13 5 -14 9 -5 9 8 0
24 -4 35 -9z m1080 -10 c-3 -5 -14 -10 -23 -10 -15 0 -15 2 -2 10 20 13 33 13
25 0z m245 -5 c0 -9 6 -12 18 -9 15 5 15 4 -1 -9 -11 -9 -25 -13 -32 -11 -7 3
-16 1 -20 -5 -11 -18 -25 -12 -25 10 0 18 4 20 25 15 19 -5 23 -3 19 9 -4 8
-1 15 5 15 6 0 11 -7 11 -15z m-759 -28 c-10 -9 -11 -8 -5 6 3 10 9 15 12 12
3 -3 0 -11 -7 -18z m-518 6 c-13 -2 -33 -2 -45 0 -13 2 -3 4 22 4 25 0 35 -2
23 -4z m255 -13 c-7 -11 -17 -20 -22 -20 -5 0 -1 9 9 20 10 11 20 20 22 20 2
0 -2 -9 -9 -20z m-175 -5 c-3 -9 -8 -14 -10 -11 -3 3 -2 9 2 15 9 16 15 13 8
-4z m-83 -5 c0 -5 -2 -10 -4 -10 -3 0 -8 5 -11 10 -3 6 -1 10 4 10 6 0 11 -4
11 -10z m1040 -3 c0 -22 -11 -27 -26 -12 -19 19 -18 25 6 25 11 0 20 -6 20
-13z m-1122 -14 c-2 -10 -10 -18 -18 -18 -8 0 -16 8 -18 18 -2 12 3 17 18 17
15 0 20 -5 18 -17z m439 11 c-3 -3 -12 -4 -19 -1 -8 3 -5 6 6 6 11 1 17 -2 13
-5z m177 -5 c-6 -10 -54 -8 -54 2 0 4 13 7 29 6 16 -1 27 -5 25 -8z m614 4
c-10 -2 -18 -9 -18 -15 0 -6 -3 -9 -6 -5 -10 10 6 27 24 26 15 -1 15 -2 0 -6z
m-1072 -38 c-6 -18 -26 -11 -26 8 0 7 4 6 10 -3 8 -13 10 -12 10 4 0 11 3 17
6 13 4 -3 4 -13 0 -22z m-51 5 c-3 -5 -13 -10 -21 -10 -8 0 -12 5 -9 10 3 6
13 10 21 10 8 0 12 -4 9 -10z m981 -27 c-3 -4 -6 0 -6 7 0 10 -4 8 -13 -4 -12
-16 -13 -16 -13 3 0 11 4 17 8 15 4 -3 8 1 8 8 0 8 5 6 11 -5 6 -10 8 -21 5
-24z m-356 17 c0 -5 -2 -10 -4 -10 -3 0 -8 5 -11 10 -3 6 -1 10 4 10 6 0 11
-4 11 -10z m-763 -6 c-3 -3 -12 -4 -19 -1 -8 3 -5 6 6 6 11 1 17 -2 13 -5z
m63 -8 c0 -8 -14 -15 -34 -18 -19 -2 -32 0 -30 4 3 4 14 8 25 8 10 0 19 5 19
10 0 6 5 10 10 10 6 0 10 -6 10 -14z m67 -12 c-3 -3 -12 -4 -19 -1 -8 3 -5 6
6 6 11 1 17 -2 13 -5z m73 -4 c0 -5 -4 -10 -10 -10 -5 0 -10 5 -10 10 0 6 5
10 10 10 6 0 10 -4 10 -10z m-280 -10 c0 -5 -4 -10 -10 -10 -5 0 -10 5 -10 10
0 6 5 10 10 10 6 0 10 -4 10 -10z m410 -10 c-20 -13 -57 -13 -44 -1 10 10 46
19 54 14 2 -2 -2 -8 -10 -13z m-255 0 c-3 -5 -20 -13 -38 -18 -25 -6 -33 -14
-35 -35 -3 -22 -8 -27 -31 -27 -16 0 -44 -3 -62 -6 -19 -4 -30 -3 -26 2 4 4
29 11 54 14 26 3 48 11 51 19 3 9 -2 11 -19 7 l-24 -6 23 11 c12 7 22 15 22
18 0 4 12 8 28 9 15 1 29 7 30 12 2 6 10 10 18 10 9 0 12 -4 9 -10z m-181 -21
c-3 -5 -10 -7 -15 -3 -5 3 -7 10 -3 15 3 5 10 7 15 3 5 -3 7 -10 3 -15z m32
-14 c-3 -9 -11 -13 -16 -10 -8 5 -7 11 1 21 14 18 24 11 15 -11z m514 15 c0
-5 -5 -10 -11 -10 -5 0 -7 5 -4 10 3 6 8 10 11 10 2 0 4 -4 4 -10z m39 -40 c6
8 13 11 18 7 8 -9 -17 -28 -31 -24 -6 2 -11 10 -14 18 -3 11 -2 11 7 -1 10
-13 12 -13 20 0z"/>
<path d="M3983 9335 c-8 -23 4 -30 22 -12 19 20 19 27 0 27 -9 0 -18 -7 -22
-15z"/>
<path d="M3941 9324 c0 -11 3 -14 6 -6 3 7 2 16 -1 19 -3 4 -6 -2 -5 -13z"/>
<path d="M4096 10210 c-19 -6 -19 -7 -1 -13 20 -8 29 -4 24 11 -2 5 -13 6 -23
2z"/>
<path d="M4070 10180 c0 -5 7 -10 15 -10 8 0 15 -4 15 -10 0 -5 12 -10 28 -9
l27 1 -27 10 c-16 5 -28 14 -28 19 0 5 -7 9 -15 9 -8 0 -15 -4 -15 -10z"/>
<path d="M4178 10133 c7 -3 16 -2 19 1 4 3 -2 6 -13 5 -11 0 -14 -3 -6 -6z"/>
<path d="M3566 10075 c-3 -8 -1 -15 4 -15 6 0 10 7 10 15 0 8 -2 15 -4 15 -2
0 -6 -7 -10 -15z"/>
<path d="M3720 10080 c0 -5 7 -10 15 -10 8 0 15 5 15 10 0 6 -7 10 -15 10 -8
0 -15 -4 -15 -10z"/>
<path d="M3638 10063 c7 -3 16 -2 19 1 4 3 -2 6 -13 5 -11 0 -14 -3 -6 -6z"/>
<path d="M3848 10063 c6 -2 18 -2 25 0 6 3 1 5 -13 5 -14 0 -19 -2 -12 -5z"/>
<path d="M3731 10035 c-25 -27 -18 -33 13 -10 10 7 16 18 15 24 -2 6 -15 -1
-28 -14z"/>
<path d="M3812 10027 c-8 -10 -6 -13 11 -14 12 0 16 1 9 4 -6 3 -10 9 -6 14 8
14 -2 11 -14 -4z"/>
<path d="M3816 9955 c-9 -26 -7 -32 5 -12 6 10 9 21 6 23 -2 3 -7 -2 -11 -11z"/>
<path d="M3960 9880 c0 -5 9 -10 20 -10 11 0 20 5 20 10 0 6 -9 10 -20 10 -11
0 -20 -4 -20 -10z"/>
<path d="M3895 9800 c-3 -5 -1 -10 4 -10 6 0 11 5 11 10 0 6 -2 10 -4 10 -3 0
-8 -4 -11 -10z"/>
<path d="M3995 9770 c3 -5 8 -10 11 -10 2 0 4 5 4 10 0 6 -5 10 -11 10 -5 0
-7 -4 -4 -10z"/>
<path d="M3418 9733 c7 -3 16 -2 19 1 4 3 -2 6 -13 5 -11 0 -14 -3 -6 -6z"/>
<path d="M3515 9720 c3 -5 8 -10 11 -10 2 0 4 5 4 10 0 6 -5 10 -11 10 -5 0
-7 -4 -4 -10z"/>
<path d="M3448 9703 c7 -3 16 -2 19 1 4 3 -2 6 -13 5 -11 0 -14 -3 -6 -6z"/>
<path d="M3245 9690 c-3 -5 -1 -10 4 -10 6 0 11 5 11 10 0 6 -2 10 -4 10 -3 0
-8 -4 -11 -10z"/>
<path d="M3510 9680 c0 -5 7 -10 15 -10 8 0 15 5 15 10 0 6 -7 10 -15 10 -8 0
-15 -4 -15 -10z"/>
<path d="M3974 9665 c4 -16 12 -34 17 -40 5 -5 4 6 -2 25 -15 45 -24 54 -15
15z"/>
<path d="M3346 9645 c-3 -8 -1 -15 3 -15 5 0 11 7 15 15 3 8 1 15 -3 15 -5 0
-11 -7 -15 -15z"/>
<path d="M3380 9645 c0 -8 2 -15 4 -15 2 0 6 7 10 15 3 8 1 15 -4 15 -6 0 -10
-7 -10 -15z"/>
<path d="M3466 9643 c-4 -9 -1 -20 6 -25 19 -11 60 -10 53 2 -3 6 -14 10 -23
10 -15 1 -15 2 2 15 19 14 19 15 -6 15 -15 0 -29 -7 -32 -17z"/>
<path d="M3420 9625 c0 -8 -4 -15 -10 -15 -5 0 -10 -4 -10 -8 0 -5 14 -9 30
-9 31 0 39 14 18 35 -16 16 -28 15 -28 -3z"/>
<path d="M3320 9599 c0 -6 -7 -9 -15 -6 -19 8 -31 -13 -14 -24 9 -5 20 -1 31
11 20 22 23 30 8 30 -5 0 -10 -5 -10 -11z"/>
<path d="M3540 9600 c0 -5 -10 -10 -21 -10 -24 0 -69 -43 -69 -65 0 -7 6 -15
13 -18 6 -2 8 -8 4 -13 -4 -5 -12 -3 -16 4 -4 7 -15 10 -25 6 -15 -6 -17 -2
-11 28 6 30 4 36 -14 41 -11 2 -28 -1 -38 -9 -10 -8 -13 -14 -8 -13 23 3 36
-2 33 -13 -1 -7 2 -23 6 -36 6 -17 14 -22 39 -20 53 3 69 15 62 49 -5 23 -3
29 10 29 10 0 13 5 9 11 -5 9 1 10 22 5 21 -5 25 -4 14 4 -12 8 -13 10 -1 10
8 0 22 -6 30 -14 14 -12 20 -12 41 0 l25 14 -31 -6 c-23 -4 -33 -2 -37 10 -7
17 -37 22 -37 6z"/>
<path d="M3200 9590 c0 -13 11 -13 30 0 12 8 11 10 -7 10 -13 0 -23 -4 -23
-10z"/>
<path d="M3525 9540 l-30 -8 32 -1 c17 0 35 4 38 9 7 11 3 11 -40 0z"/>
<path d="M3630 9540 c0 -5 9 -10 20 -10 11 0 20 5 20 10 0 6 -9 10 -20 10 -11
0 -20 -4 -20 -10z"/>
<path d="M3790 9525 c0 -8 5 -15 10 -15 6 0 10 7 10 15 0 8 -4 15 -10 15 -5 0
-10 -7 -10 -15z"/>
<path d="M3985 9531 c-3 -5 -1 -12 5 -16 5 -3 10 1 10 9 0 18 -6 21 -15 7z"/>
<path d="M3210 9500 c0 -11 5 -20 10 -20 6 0 10 9 10 20 0 11 -4 20 -10 20 -5
0 -10 -9 -10 -20z"/>
<path d="M3350 9505 c0 -8 5 -15 10 -15 6 0 10 7 10 15 0 8 -4 15 -10 15 -5 0
-10 -7 -10 -15z"/>
<path d="M3513 9503 c-7 -2 -13 -10 -13 -17 0 -8 18 -12 54 -11 68 0 80 10 29
24 -41 12 -51 12 -70 4z"/>
<path d="M3778 9493 c7 -3 16 -2 19 1 4 3 -2 6 -13 5 -11 0 -14 -3 -6 -6z"/>
<path d="M3307 9483 c-4 -3 -7 -14 -7 -24 0 -12 6 -17 20 -14 11 2 20 0 20 -6
0 -5 -7 -9 -15 -9 -8 0 -15 -4 -15 -10 0 -5 7 -10 17 -10 15 0 15 -1 -1 -19
-16 -18 -16 -18 9 -14 28 6 31 13 13 31 -9 9 -9 15 0 24 10 10 7 15 -10 26
-15 9 -17 11 -5 8 10 -3 23 -6 29 -6 6 0 8 -11 5 -25 -3 -16 0 -24 7 -22 6 2
12 18 14 36 3 30 2 31 -22 25 -16 -4 -26 -2 -26 5 0 12 -23 15 -33 4z"/>
<path d="M3640 9480 c-12 -8 -10 -10 8 -10 13 0 20 4 17 10 -7 12 -6 12 -25 0z"/>
<path d="M3695 9480 c-3 -5 -1 -10 4 -10 6 0 11 5 11 10 0 6 -2 10 -4 10 -3 0
-8 -4 -11 -10z"/>
<path d="M3880 9479 c0 -5 5 -7 10 -4 6 3 10 8 10 11 0 2 -4 4 -10 4 -5 0 -10
-5 -10 -11z"/>
<path d="M3830 9471 c0 -6 5 -13 10 -16 6 -3 10 1 10 9 0 9 -4 16 -10 16 -5 0
-10 -4 -10 -9z"/>
<path d="M3778 9463 c7 -3 16 -2 19 1 4 3 -2 6 -13 5 -11 0 -14 -3 -6 -6z"/>
<path d="M3425 9445 c-16 -8 -24 -14 -16 -15 8 0 25 -9 37 -21 13 -12 28 -18
34 -14 9 6 9 10 -1 16 -11 8 -10 12 5 20 15 9 16 13 5 20 -18 11 -28 10 -64
-6z"/>
<path d="M3717 9453 c-15 -15 -6 -41 17 -47 13 -3 31 -9 40 -12 9 -3 16 -1 16
5 0 6 -9 11 -21 11 -19 0 -49 21 -49 34 0 3 7 6 15 6 8 0 15 -5 15 -10 0 -6
15 -10 34 -8 19 1 32 6 30 10 -3 5 -14 6 -24 3 -10 -3 -21 -1 -25 5 -7 11 -38
14 -48 3z"/>
<path d="M3237 9436 c-8 -9 -13 -25 -10 -36 3 -11 1 -20 -5 -20 -6 0 -12 8
-14 18 -2 9 -6 12 -10 7 -3 -6 0 -19 7 -29 13 -17 15 -17 30 -2 9 9 21 16 26
16 5 0 9 5 9 10 0 6 -10 10 -22 10 -22 1 -22 1 -4 15 11 8 17 17 14 20 -3 3
-13 -1 -21 -9z"/>
<path d="M3560 9440 c0 -5 7 -10 15 -10 8 0 15 5 15 10 0 6 -7 10 -15 10 -8 0
-15 -4 -15 -10z"/>
<path d="M3626 9441 c-3 -5 10 -8 29 -8 19 1 35 5 35 9 0 11 -58 10 -64 -1z"/>
<path d="M3110 9420 c0 -5 5 -10 11 -10 5 0 7 5 4 10 -3 6 -8 10 -11 10 -2 0
-4 -4 -4 -10z"/>
<path d="M3840 9420 c20 -13 40 -13 40 0 0 6 -12 10 -27 10 -22 0 -25 -2 -13
-10z"/>
<path d="M2907 9377 c-4 -10 2 -13 19 -9 33 6 41 22 11 22 -14 0 -27 -6 -30
-13z"/>
<path d="M2979 9388 c-6 -19 -4 -56 3 -65 12 -15 58 -17 58 -3 0 5 -6 7 -14 4
-8 -3 -17 0 -21 5 -3 6 -10 9 -15 6 -5 -3 -7 8 -5 25 2 16 2 30 -1 30 -2 0 -4
-1 -5 -2z"/>
<path d="M3048 9383 c6 -2 18 -2 25 0 6 3 1 5 -13 5 -14 0 -19 -2 -12 -5z"/>
<path d="M3550 9365 c-10 -12 -9 -15 8 -15 11 0 22 7 26 15 3 9 0 15 -8 15 -7
0 -19 -7 -26 -15z"/>
<path d="M3010 9360 c0 -5 5 -10 10 -10 6 0 10 5 10 10 0 6 -4 10 -10 10 -5 0
-10 -4 -10 -10z"/>
<path d="M3160 9360 c0 -6 7 -10 15 -10 8 0 15 2 15 4 0 2 -7 6 -15 10 -8 3
-15 1 -15 -4z"/>
<path d="M3488 9352 c-4 -12 -2 -20 3 -16 5 3 9 -2 9 -10 0 -17 42 -31 66 -22
12 5 14 1 10 -17 -3 -12 -3 -17 0 -10 3 7 13 9 22 5 15 -5 15 -4 0 12 -10 9
-18 23 -18 29 0 7 -4 6 -10 -3 -6 -10 -10 -11 -10 -2 0 6 -11 12 -25 12 -17 0
-28 7 -34 22 l-8 22 -5 -22z"/>
<path d="M3690 9360 c0 -5 5 -10 10 -10 6 0 10 5 10 10 0 6 -4 10 -10 10 -5 0
-10 -4 -10 -10z"/>
<path d="M3371 9334 c0 -11 3 -14 6 -6 3 7 2 16 -1 19 -3 4 -6 -2 -5 -13z"/>
<path d="M3630 9300 c-11 -7 -7 -10 18 -10 17 0 32 5 32 10 0 13 -30 13 -50 0z"/>
<path d="M3480 9291 c0 -6 5 -13 10 -16 6 -3 10 1 10 9 0 9 -4 16 -10 16 -5 0
-10 -4 -10 -9z"/>
<path d="M3395 9260 c-15 -6 -11 -7 17 -7 23 1 33 4 25 9 -14 9 -16 9 -42 -2z"/>
<path d="M3608 9263 c6 -2 18 -2 25 0 6 3 1 5 -13 5 -14 0 -19 -2 -12 -5z"/>
<path d="M3007 9224 c3 -7 9 -14 14 -14 14 0 10 17 -5 23 -10 4 -13 1 -9 -9z"/>
<path d="M3170 9236 c0 -2 8 -10 18 -17 15 -13 16 -12 3 4 -13 16 -21 21 -21
13z"/>
<path d="M3663 9208 c-23 -11 -32 -48 -13 -48 6 0 10 5 10 10 0 6 6 10 14 10
7 0 19 6 26 14 6 8 19 12 28 9 15 -4 15 -3 2 6 -19 13 -38 13 -67 -1z"/>
<path d="M3081 9196 c-9 -11 -3 -16 31 -24 27 -7 46 -8 52 -2 7 7 -4 10 -28
10 -30 0 -37 3 -32 15 7 19 -8 20 -23 1z"/>
<path d="M3250 9200 c0 -5 5 -10 10 -10 6 0 10 5 10 10 0 6 -4 10 -10 10 -5 0
-10 -4 -10 -10z"/>
<path d="M3500 9193 c0 -27 17 -29 45 -7 20 16 19 16 -4 9 -15 -5 -26 -3 -32
6 -6 10 -9 8 -9 -8z"/>
<path d="M3011 9184 c0 -11 3 -14 6 -6 3 7 2 16 -1 19 -3 4 -6 -2 -5 -13z"/>
<path d="M3215 9180 c19 -8 73 -14 64 -6 -2 2 -22 6 -44 9 -28 5 -34 4 -20 -3z"/>
<path d="M3030 9169 c0 -5 5 -7 10 -4 6 3 10 8 10 11 0 2 -4 4 -10 4 -5 0 -10
-5 -10 -11z"/>
<path d="M3708 9173 c7 -3 16 -2 19 1 4 3 -2 6 -13 5 -11 0 -14 -3 -6 -6z"/>
<path d="M3070 9153 c0 -17 5 -19 28 -15 16 3 21 7 12 10 -8 3 -21 9 -27 15
-10 7 -13 4 -13 -10z"/>
<path d="M3197 9159 c7 -7 15 -10 18 -7 3 3 -2 9 -12 12 -14 6 -15 5 -6 -5z"/>
<path d="M3300 9160 c-13 -8 -12 -10 3 -10 9 0 17 5 17 10 0 12 -1 12 -20 0z"/>
<path d="M3676 9157 c2 -7 -5 -23 -16 -35 l-21 -22 28 1 c15 0 22 3 16 6 -22
8 -14 25 10 20 12 -4 29 -2 37 3 12 8 10 10 -8 10 -12 0 -25 7 -28 15 -4 8
-10 15 -15 15 -4 0 -6 -6 -3 -13z"/>
<path d="M3790 9160 c0 -5 7 -10 15 -10 8 0 15 5 15 10 0 6 -7 10 -15 10 -8 0
-15 -4 -15 -10z"/>
<path d="M3450 9155 c0 -5 5 -17 10 -25 5 -8 10 -10 10 -5 0 6 -5 17 -10 25
-5 8 -10 11 -10 5z"/>
<path d="M4875 9150 c3 -5 8 -10 11 -10 2 0 4 5 4 10 0 6 -5 10 -11 10 -5 0
-7 -4 -4 -10z"/>
<path d="M4718 9143 c-29 -7 -20 -18 16 -19 29 -1 32 1 21 13 -8 7 -15 12 -17
12 -2 -1 -11 -3 -20 -6z"/>
<path d="M3157 9133 c-4 -3 -7 -17 -7 -31 0 -20 -3 -22 -14 -13 -16 13 -32 -2
-21 -19 8 -13 43 5 67 34 l17 21 1 -21 c0 -24 -29 -54 -53 -54 -11 0 -17 -8
-17 -25 0 -30 7 -31 31 -4 10 11 23 18 28 14 6 -3 11 1 11 9 0 9 9 16 20 16
11 0 20 -4 20 -9 0 -15 -28 -32 -47 -29 -13 2 -19 -4 -21 -22 -3 -22 -2 -23
10 -9 7 9 34 22 61 29 26 7 47 16 47 20 0 3 -11 13 -25 20 -30 16 -33 34 -5
25 14 -5 20 -2 20 9 0 9 9 16 20 16 11 0 20 5 20 10 0 16 -40 12 -46 -5 -6
-16 -34 -21 -34 -7 0 19 -69 40 -83 25z"/>
<path d="M3017 9102 c-3 -15 -3 -30 -1 -34 6 -9 44 2 44 13 0 5 6 9 13 9 6 0
21 8 32 16 19 15 19 15 -10 8 -16 -4 -41 -14 -55 -23 -25 -15 -25 -15 -7 6 15
17 15 21 3 26 -9 4 -16 -3 -19 -21z"/>
<path d="M3435 9120 c-4 -6 -3 -16 3 -22 13 -13 23 4 13 21 -7 10 -10 10 -16
1z"/>
<path d="M8 9095 c-4 -20 -3 -23 8 -14 16 13 19 39 5 39 -5 0 -11 -11 -13 -25z"/>
<path d="M2395 9110 c3 -5 8 -10 11 -10 2 0 4 5 4 10 0 6 -5 10 -11 10 -5 0
-7 -4 -4 -10z"/>
<path d="M2860 9110 c-8 -5 -11 -12 -7 -16 4 -4 13 -2 19 4 15 15 7 24 -12 12z"/>
<path d="M2890 9101 c0 -5 9 -12 19 -16 23 -7 71 4 71 16 0 11 2 11 -38 0 -20
-6 -32 -6 -32 0 0 5 -4 9 -10 9 -5 0 -10 -4 -10 -9z"/>
<path d="M3323 9098 c-32 -10 -33 -12 -27 -52 8 -46 14 -60 14 -28 0 11 5 24
10 27 6 4 8 11 5 16 -4 5 6 9 22 9 22 0 25 -2 13 -11 -11 -8 -9 -9 10 -3 39
10 50 18 42 31 -11 17 -53 23 -89 11z m67 -8 c24 -15 7 -18 -20 -3 -14 7 -18
13 -10 13 8 0 22 -4 30 -10z"/>
<path d="M2688 9093 c6 -2 18 -2 25 0 6 3 1 5 -13 5 -14 0 -19 -2 -12 -5z"/>
<path d="M4763 9078 c1 -15 -5 -24 -23 -29 -24 -7 -24 -7 -2 -8 22 -1 62 30
62 49 0 6 -9 10 -20 10 -14 0 -19 -6 -17 -22z"/>
<path d="M2730 9070 c-8 -11 -21 -20 -28 -20 -16 0 -11 -22 6 -28 7 -2 12 4
12 13 0 10 6 15 13 12 7 -3 13 5 13 19 2 29 2 29 -16 4z"/>
<path d="M3626 9074 c-11 -7 -18 -16 -15 -18 2 -2 13 2 23 10 11 7 18 16 15
18 -2 2 -13 -2 -23 -10z"/>
<path d="M4070 9070 c0 -11 2 -20 4 -20 2 0 6 9 9 20 3 11 1 20 -4 20 -5 0 -9
-9 -9 -20z"/>
<path d="M4430 9080 c0 -5 5 -10 11 -10 5 0 7 -4 4 -10 -4 -6 1 -7 12 -3 16 6
16 5 4 -10 -7 -9 -17 -14 -22 -11 -5 3 -9 1 -9 -5 0 -5 5 -13 10 -16 6 -3 10
-2 10 4 0 5 10 13 21 16 21 7 21 7 -4 31 -28 26 -37 29 -37 14z"/>
<path d="M3430 9066 c0 -8 -6 -16 -12 -19 -7 -2 -10 -8 -6 -12 12 -13 38 4 38
25 0 11 -4 20 -10 20 -5 0 -10 -6 -10 -14z"/>
<path d="M3990 9059 c0 -23 27 -55 38 -44 4 4 1 10 -5 12 -8 3 -11 14 -7 29 5
18 2 24 -10 24 -10 0 -16 -8 -16 -21z"/>
<path d="M4800 9068 c0 -11 22 -10 40 2 11 8 9 9 -12 8 -16 -1 -28 -6 -28 -10z"/>
<path d="M28 9063 c7 -3 16 -2 19 1 4 3 -2 6 -13 5 -11 0 -14 -3 -6 -6z"/>
<path d="M2990 9060 c0 -5 5 -10 10 -10 6 0 10 5 10 10 0 6 -4 10 -10 10 -5 0
-10 -4 -10 -10z"/>
<path d="M3518 9063 c7 -3 16 -2 19 1 4 3 -2 6 -13 5 -11 0 -14 -3 -6 -6z"/>
<path d="M2910 9046 c0 -2 7 -7 16 -10 8 -3 12 -2 9 4 -6 10 -25 14 -25 6z"/>
<path d="M3465 9027 c-19 -27 -19 -35 -1 -53 19 -19 32 -18 16 1 -11 13 -8 17
19 28 37 14 38 19 6 34 -22 10 -27 8 -40 -10z m35 -7 c0 -5 -4 -10 -10 -10 -5
0 -10 5 -10 10 0 6 5 10 10 10 6 0 10 -4 10 -10z"/>
<path d="M3540 9039 c0 -5 5 -7 10 -4 6 3 10 8 10 11 0 2 -4 4 -10 4 -5 0 -10
-5 -10 -11z"/>
<path d="M3972 9025 c0 -16 2 -22 5 -12 2 9 2 23 0 30 -3 6 -5 -1 -5 -18z"/>
<path d="M0 9004 c0 -28 4 -33 30 -39 16 -3 37 -2 47 4 15 9 11 10 -19 11 -21
0 -38 5 -38 10 0 6 5 10 10 10 6 0 10 9 10 19 0 14 -6 19 -20 18 -16 -1 -20
-8 -20 -33z"/>
<path d="M2775 9027 c-4 -10 -5 -21 -1 -24 10 -10 18 4 13 24 -4 17 -4 17 -12
0z"/>
<path d="M2985 9029 c-4 -6 -17 -14 -29 -19 -14 -6 -16 -9 -5 -9 9 -1 24 8 34
19 10 11 15 20 12 20 -3 0 -9 -5 -12 -11z"/>
<path d="M3370 9031 c0 -5 7 -12 16 -15 11 -4 15 -15 12 -36 -4 -26 -2 -29 24
-27 32 2 38 26 8 34 -19 5 -20 6 -3 19 17 12 16 13 -9 14 -16 0 -28 5 -28 10
0 6 -4 10 -10 10 -5 0 -10 -4 -10 -9z"/>
<path d="M4625 9031 c-6 -11 13 -26 22 -17 4 3 1 6 -6 6 -7 0 -9 5 -6 10 3 6
4 10 1 10 -3 0 -7 -4 -11 -9z"/>
<path d="M4665 9030 c-8 -13 15 -13 35 0 12 8 11 10 -7 10 -12 0 -25 -4 -28
-10z"/>
<path d="M2830 9020 c0 -5 5 -10 10 -10 6 0 10 5 10 10 0 6 -4 10 -10 10 -5 0
-10 -4 -10 -10z"/>
<path d="M2890 9020 c0 -5 5 -10 10 -10 6 0 10 5 10 10 0 6 -4 10 -10 10 -5 0
-10 -4 -10 -10z"/>
<path d="M3050 9000 c0 -5 5 -10 10 -10 6 0 10 5 10 10 0 6 -4 10 -10 10 -5 0
-10 -4 -10 -10z"/>
<path d="M3316 8982 c-15 -28 -15 -28 15 -24 32 5 36 16 14 38 -12 13 -16 11
-29 -14z"/>
<path d="M3911 8991 c-16 -29 -14 -46 2 -32 8 6 17 8 20 4 4 -3 7 -1 7 5 0 7
15 13 33 13 l32 2 -30 4 c-16 3 -35 9 -42 15 -8 6 -15 3 -22 -11z"/>
<path d="M4480 8999 c0 -5 5 -7 10 -4 6 3 10 8 10 11 0 2 -4 4 -10 4 -5 0 -10
-5 -10 -11z"/>
<path d="M3220 8990 c-13 -8 -12 -10 3 -10 9 0 17 5 17 10 0 12 -1 12 -20 0z"/>
<path d="M3275 8991 c-3 -5 -1 -12 5 -16 5 -3 10 1 10 9 0 18 -6 21 -15 7z"/>
<path d="M4025 8990 c-4 -6 3 -10 14 -10 25 0 27 6 6 13 -8 4 -17 2 -20 -3z"/>
<path d="M4517 8988 c2 -5 -11 -8 -29 -8 -18 0 -42 -7 -52 -15 -11 -8 -32 -15
-46 -15 -14 0 -35 -7 -46 -16 -19 -15 -19 -15 1 -11 57 13 225 62 225 67 0 3
-13 5 -29 5 -16 0 -27 -3 -24 -7z"/>
<path d="M3511 8974 c-18 -21 -6 -30 14 -11 8 9 15 18 15 21 0 11 -15 5 -29
-10z"/>
<path d="M3050 8959 c0 -5 5 -7 10 -4 6 3 10 8 10 11 0 2 -4 4 -10 4 -5 0 -10
-5 -10 -11z"/>
<path d="M3195 8960 c3 -5 10 -10 16 -10 5 0 9 5 9 10 0 6 -7 10 -16 10 -8 0
-12 -4 -9 -10z"/>
<path d="M4115 8960 c3 -5 11 -10 16 -10 6 0 7 5 4 10 -3 6 -11 10 -16 10 -6
0 -7 -4 -4 -10z"/>
<path d="M3230 8950 c0 -5 4 -10 9 -10 6 0 13 5 16 10 3 6 -1 10 -9 10 -9 0
-16 -4 -16 -10z"/>
<path d="M3536 8933 c-3 -10 -9 -25 -13 -33 -5 -13 -4 -13 11 -1 27 22 40 51
23 51 -8 0 -17 -8 -21 -17z"/>
<path d="M3596 8941 c-4 -7 -5 -15 -2 -18 9 -9 19 4 14 18 -4 11 -6 11 -12 0z"/>
<path d="M0 8920 c0 -22 1 -23 24 -14 23 9 20 34 -4 34 -13 0 -20 -7 -20 -20z"/>
<path d="M2880 8936 c0 -2 7 -7 16 -10 8 -3 12 -2 9 4 -6 10 -25 14 -25 6z"/>
<path d="M3470 8930 c0 -13 11 -13 30 0 12 8 11 10 -7 10 -13 0 -23 -4 -23
-10z"/>
<path d="M3768 8933 c12 -2 30 -2 40 0 9 3 -1 5 -23 4 -22 0 -30 -2 -17 -4z"/>
<path d="M1890 8920 c0 -5 5 -10 10 -10 6 0 10 5 10 10 0 6 -4 10 -10 10 -5 0
-10 -4 -10 -10z"/>
<path d="M2110 8919 c0 -5 5 -7 10 -4 6 3 10 8 10 11 0 2 -4 4 -10 4 -5 0 -10
-5 -10 -11z"/>
<path d="M2698 8923 c7 -3 16 -2 19 1 4 3 -2 6 -13 5 -11 0 -14 -3 -6 -6z"/>
<path d="M3260 8913 c-24 -12 -24 -13 -3 -13 12 0 25 5 28 11 11 16 2 17 -25
2z"/>
<path d="M3305 8920 c-3 -5 1 -10 9 -10 9 0 16 5 16 10 0 6 -4 10 -9 10 -6 0
-13 -4 -16 -10z"/>
<path d="M3355 8920 c3 -5 8 -10 11 -10 2 0 4 5 4 10 0 6 -5 10 -11 10 -5 0
-7 -4 -4 -10z"/>
<path d="M3390 8919 c0 -11 21 -11 39 0 9 6 5 9 -13 9 -14 0 -26 -4 -26 -9z"/>
<path d="M2092 8900 c-1 -14 5 -33 12 -43 12 -16 14 -15 14 8 0 13 -4 22 -9
20 -4 -3 -10 5 -12 17 -4 22 -4 22 -5 -2z"/>
<path d="M3198 8913 c7 -3 16 -2 19 1 4 3 -2 6 -13 5 -11 0 -14 -3 -6 -6z"/>
<path d="M4285 8910 c-13 -6 -15 -9 -5 -9 8 0 22 4 30 9 18 12 2 12 -25 0z"/>
<path d="M13 8893 c-18 -7 -16 -50 3 -57 25 -10 34 -7 34 9 0 8 5 15 10 15 6
0 10 -7 10 -16 0 -8 4 -12 10 -9 14 9 -12 46 -28 40 -20 -8 -37 6 -21 16 15 9
2 11 -18 2z"/>
<path d="M3320 8890 c-19 -12 -7 -22 21 -18 19 2 20 5 8 15 -9 7 -20 9 -29 3z"/>
<path d="M2664 8874 c-18 -14 -18 -15 4 -4 12 6 22 13 22 15 0 8 -5 6 -26 -11z"/>
<path d="M3265 8880 c-19 -8 -19 -9 3 -9 12 -1 22 4 22 9 0 6 -1 10 -2 9 -2 0
-12 -4 -23 -9z"/>
<path d="M3230 8859 c0 -5 11 -9 25 -9 14 0 25 2 25 4 0 2 -11 6 -25 8 -14 3
-25 1 -25 -3z"/>
<path d="M2790 8850 c0 -5 5 -10 11 -10 5 0 7 5 4 10 -3 6 -8 10 -11 10 -2 0
-4 -4 -4 -10z"/>
<path d="M10 8821 c12 -9 12 -13 2 -19 -14 -9 -6 -102 9 -102 5 0 9 7 9 15 0
8 5 15 10 15 6 0 10 -4 10 -10 0 -5 5 -10 10 -10 6 0 10 7 10 15 0 9 -9 15
-22 15 -25 0 -14 15 17 23 17 4 17 5 -4 6 -19 1 -23 5 -19 26 3 14 2 25 -3 25
-4 0 -16 3 -26 6 -15 5 -16 4 -3 -5z"/>
<path d="M3995 8820 c-3 -5 -2 -10 4 -10 5 0 13 5 16 10 3 6 2 10 -4 10 -5 0
-13 -4 -16 -10z"/>
<path d="M2618 8813 c6 -2 18 -2 25 0 6 3 1 5 -13 5 -14 0 -19 -2 -12 -5z"/>
<path d="M3960 8810 c0 -5 5 -10 11 -10 5 0 7 5 4 10 -3 6 -8 10 -11 10 -2 0
-4 -4 -4 -10z"/>
<path d="M2150 8800 c0 -5 5 -10 10 -10 6 0 10 5 10 10 0 6 -4 10 -10 10 -5 0
-10 -4 -10 -10z"/>
<path d="M3330 8780 c0 -5 5 -10 10 -10 6 0 10 5 10 10 0 6 -4 10 -10 10 -5 0
-10 -4 -10 -10z"/>
<path d="M3850 8781 c-8 -6 -18 -7 -24 -4 -5 3 -6 1 -2 -5 6 -10 16 -9 76 11
8 3 4 6 -10 6 -14 0 -32 -3 -40 -8z"/>
<path d="M2215 8730 c-3 -5 -1 -10 4 -10 6 0 11 5 11 10 0 6 -2 10 -4 10 -3 0
-8 -4 -11 -10z"/>
<path d="M2888 8703 c7 -3 16 -2 19 1 4 3 -2 6 -13 5 -11 0 -14 -3 -6 -6z"/>
<path d="M25 8659 c-4 -16 -11 -27 -16 -23 -5 3 -9 -2 -9 -10 0 -25 27 -18 34
8 4 15 14 26 29 28 31 4 28 20 -5 24 -22 2 -28 -2 -33 -27z"/>
<path d="M1438 8583 c7 -3 16 -2 19 1 4 3 -2 6 -13 5 -11 0 -14 -3 -6 -6z"/>
<path d="M7 8553 c-3 -16 -6 -211 -6 -435 l-1 -408 28 0 c15 0 34 5 42 10 12
8 11 10 -7 10 -13 0 -23 5 -23 10 0 6 18 10 40 10 22 0 40 5 40 10 0 6 -9 10
-20 10 -35 0 -21 17 23 27 24 6 33 11 20 12 -13 0 -23 6 -23 11 0 6 10 10 23
11 l22 0 -23 10 c-24 9 -22 29 4 29 8 0 14 5 14 10 0 6 -13 10 -30 10 -16 0
-30 5 -30 10 0 6 7 10 15 10 8 0 15 5 15 11 0 6 9 8 22 4 15 -6 20 -4 15 6 -3
8 -8 21 -12 30 -4 10 0 19 8 22 24 9 57 -4 57 -22 0 -10 3 -12 8 -5 4 6 14 14
22 17 10 4 8 6 -7 6 -13 1 -23 7 -23 15 0 19 -26 40 -35 26 -8 -13 -45 -13
-45 0 0 6 -7 10 -15 10 -8 0 -15 5 -15 10 0 6 7 10 15 10 8 0 15 -4 15 -10 0
-5 7 -10 15 -10 8 0 15 5 15 10 0 6 -4 10 -9 10 -4 0 -6 10 -4 23 3 15 18 29
41 39 20 10 29 17 20 17 -21 1 -24 17 -5 24 6 3 8 6 2 6 -5 0 -17 -4 -25 -9
-12 -8 -13 -12 -2 -19 10 -6 8 -10 -9 -14 -13 -4 -28 -2 -33 3 -6 6 -24 10
-41 11 -28 0 -28 1 -9 11 18 8 21 15 14 38 -8 26 -6 29 28 35 21 4 31 10 23
13 -8 2 -22 12 -33 21 -18 16 -18 16 4 22 13 3 22 11 20 18 -1 7 2 19 8 26 8
10 7 14 -2 18 -9 4 -9 6 -1 6 6 1 15 -3 18 -9 3 -5 11 -10 16 -10 6 0 7 5 3
11 -3 6 0 15 7 21 11 7 10 8 -5 6 -10 -2 -21 3 -24 11 -3 9 0 11 8 6 8 -5 11
-4 6 3 -6 11 19 42 34 42 5 0 12 -4 15 -10 3 -5 -1 -10 -9 -10 -8 0 -18 -5
-22 -12 -5 -7 -3 -8 5 -4 7 5 21 0 32 -10 20 -18 20 -18 13 11 -4 17 -11 33
-17 36 -5 4 -3 9 4 11 8 3 11 9 7 13 -4 4 -14 0 -23 -9 -9 -9 -22 -16 -28 -15
-9 0 -8 2 0 6 8 3 11 14 7 28 -5 19 -1 24 18 28 12 2 -4 2 -37 -1 l-61 -4 -17
48 c-14 41 -16 43 -11 14 l5 -35 -16 28 c-9 15 -22 27 -30 27 -8 0 -15 5 -15
10 0 23 -28 8 -33 -17z m73 -44 c0 -5 -12 -8 -27 -8 -17 1 -21 3 -10 6 9 2 17
9 17 14 0 6 5 7 10 4 6 -3 10 -10 10 -16z m100 -103 c0 -2 -8 -10 -17 -17 -16
-13 -17 -12 -4 4 13 16 21 21 21 13z m-43 -182 c-3 -3 -12 -4 -19 -1 -8 3 -5
6 6 6 11 1 17 -2 13 -5z m-57 -39 c0 -8 -4 -15 -10 -15 -5 0 -7 7 -4 15 4 8 8
15 10 15 2 0 4 -7 4 -15z m30 -185 c0 -5 -4 -10 -10 -10 -5 0 -10 5 -10 10 0
6 5 10 10 10 6 0 10 -4 10 -10z m100 6 c0 -3 -4 -8 -10 -11 -5 -3 -10 -1 -10
4 0 6 5 11 10 11 6 0 10 -2 10 -4z m-85 -46 c3 -5 1 -10 -4 -10 -6 0 -11 5
-11 10 0 6 2 10 4 10 3 0 8 -4 11 -10z"/>
<path d="M1465 8560 c3 -5 10 -10 16 -10 5 0 9 5 9 10 0 6 -7 10 -16 10 -8 0
-12 -4 -9 -10z"/>
<path d="M619 8558 c-6 -24 -5 -57 2 -53 5 3 8 17 7 30 -2 21 -6 32 -9 23z"/>
<path d="M257 8536 c-4 -10 -1 -13 8 -9 8 3 12 9 9 14 -7 12 -11 11 -17 -5z"/>
<path d="M348 8493 c7 -3 16 -2 19 1 4 3 -2 6 -13 5 -11 0 -14 -3 -6 -6z"/>
<path d="M395 8480 c-3 -5 -1 -10 4 -10 6 0 11 5 11 10 0 6 -2 10 -4 10 -3 0
-8 -4 -11 -10z"/>
<path d="M1910 8471 c0 -5 5 -13 10 -16 6 -3 10 -2 10 4 0 5 -4 13 -10 16 -5
3 -10 2 -10 -4z"/>
<path d="M405 8460 c-13 -6 -15 -9 -5 -9 8 0 22 4 30 9 18 12 2 12 -25 0z"/>
<path d="M527 8455 c-19 -13 -23 -35 -7 -35 6 0 10 4 10 8 0 5 10 13 22 19 17
7 18 11 7 15 -8 3 -23 0 -32 -7z"/>
<path d="M275 8451 c-6 -11 9 -23 19 -14 9 9 7 23 -3 23 -6 0 -12 -4 -16 -9z"/>
<path d="M613 8446 c1 -11 9 -21 17 -23 10 -3 11 -2 4 4 -6 4 -14 15 -17 23
-5 11 -6 9 -4 -4z"/>
<path d="M290 8399 c0 -5 5 -7 10 -4 6 3 10 8 10 11 0 2 -4 4 -10 4 -5 0 -10
-5 -10 -11z"/>
<path d="M462 8370 c0 -14 2 -19 5 -12 2 6 2 18 0 25 -3 6 -5 1 -5 -13z"/>
<path d="M694 8361 c9 -16 21 -31 28 -33 10 -4 10 -8 -1 -21 -9 -11 -10 -17
-2 -17 6 0 11 5 11 11 0 5 5 7 10 4 6 -4 3 9 -6 28 -9 18 -25 39 -35 46 -19
11 -19 11 -5 -18z"/>
<path d="M275 8360 c-3 -5 1 -10 9 -10 9 0 16 5 16 10 0 6 -4 10 -9 10 -6 0
-13 -4 -16 -10z"/>
<path d="M615 8360 c-3 -5 -1 -10 4 -10 6 0 11 5 11 10 0 6 -2 10 -4 10 -3 0
-8 -4 -11 -10z"/>
<path d="M730 8364 c0 -10 31 -36 37 -31 3 3 -2 13 -10 22 -16 15 -27 19 -27
9z"/>
<path d="M580 8351 c0 -6 5 -13 10 -16 6 -3 10 1 10 9 0 9 -4 16 -10 16 -5 0
-10 -4 -10 -9z"/>
<path d="M240 8341 c0 -5 7 -12 16 -15 14 -5 15 -4 4 9 -14 17 -20 19 -20 6z"/>
<path d="M260 8263 c0 -10 4 -14 8 -8 4 6 11 13 16 18 5 4 2 7 -7 7 -10 0 -17
-8 -17 -17z"/>
<path d="M430 8259 c0 -5 5 -7 10 -4 6 3 10 8 10 11 0 2 -4 4 -10 4 -5 0 -10
-5 -10 -11z"/>
<path d="M850 8250 c-8 -5 -12 -11 -10 -14 3 -2 14 2 24 10 22 15 10 19 -14 4z"/>
<path d="M930 8220 c0 -5 5 -10 10 -10 6 0 10 5 10 10 0 6 -4 10 -10 10 -5 0
-10 -4 -10 -10z"/>
<path d="M410 8190 c0 -5 5 -10 10 -10 6 0 10 5 10 10 0 6 -4 10 -10 10 -5 0
-10 -4 -10 -10z"/>
<path d="M360 8160 c-8 -5 -12 -12 -8 -15 9 -9 48 4 48 16 0 12 -21 11 -40 -1z"/>
<path d="M271 8131 c-9 -6 -10 -11 -2 -15 6 -4 11 -3 11 3 0 5 8 12 18 14 12
3 13 5 2 6 -8 0 -21 -3 -29 -8z"/>
<path d="M563 8133 c9 -2 23 -2 30 0 6 3 -1 5 -18 5 -16 0 -22 -2 -12 -5z"/>
<path d="M332 8085 c16 -16 32 -23 42 -19 24 9 14 30 -12 26 -12 -2 -22 2 -22
7 0 6 -7 11 -16 11 -13 0 -11 -5 8 -25z"/>
<path d="M187 8079 c-25 -29 -14 -36 15 -10 20 20 24 20 34 6 8 -10 14 -12 19
-6 3 6 1 11 -5 11 -6 0 -8 5 -5 10 12 20 -41 10 -58 -11z"/>
<path d="M503 8073 c-18 -7 -16 -23 2 -23 8 0 15 7 15 15 0 8 -1 15 -2 14 -2
0 -9 -3 -15 -6z"/>
<path d="M266 8053 c-3 -3 -3 -10 0 -14 7 -12 34 -11 34 0 0 11 -26 22 -34 14z"/>
<path d="M315 8050 c-3 -5 1 -10 10 -10 9 0 13 5 10 10 -3 6 -8 10 -10 10 -2
0 -7 -4 -10 -10z"/>
<path d="M300 8001 c0 -5 9 -7 20 -4 11 3 20 7 20 9 0 2 -9 4 -20 4 -11 0 -20
-4 -20 -9z"/>
<path d="M460 7986 c0 -8 4 -17 9 -20 5 -4 7 3 4 14 -6 23 -13 26 -13 6z"/>
<path d="M4350 7928 c-64 -33 -90 -76 -90 -152 0 -60 0 -60 55 -112 46 -44 60
-66 85 -134 17 -45 72 -169 124 -274 51 -105 107 -223 125 -263 17 -39 56
-118 87 -175 30 -56 69 -136 85 -176 32 -80 90 -197 111 -225 12 -17 16 -17
51 -2 20 8 37 17 37 19 0 2 -67 143 -149 313 -287 596 -411 863 -411 888 0 2
11 6 24 9 13 3 31 9 40 12 11 4 24 -13 52 -68 20 -40 51 -98 69 -128 18 -30
63 -120 100 -200 120 -259 328 -684 361 -736 l32 -52 41 11 c23 6 41 14 41 18
0 3 -27 58 -60 120 -33 63 -98 193 -145 289 -162 329 -330 665 -363 724 l-33
60 21 49 c15 34 20 60 15 83 -18 100 -193 158 -305 102z m184 -89 c60 -47 3
-129 -91 -129 -54 0 -83 26 -83 74 0 48 37 76 100 76 33 0 55 -6 74 -21z"/>
<path d="M4442 7788 c2 -28 7 -33 28 -33 16 0 26 6 28 18 5 23 -15 47 -40 47
-16 0 -19 -6 -16 -32z"/>
<path d="M6325 7936 c-61 -30 -105 -85 -105 -132 0 -18 12 -60 26 -92 l26 -60
-43 -58 c-23 -32 -57 -74 -74 -93 -18 -20 -52 -67 -75 -106 -23 -38 -75 -115
-115 -170 -81 -112 -144 -216 -156 -258 -5 -17 -3 -47 6 -80 13 -47 13 -54 -4
-77 -35 -49 -163 -93 -296 -102 -40 -2 -50 0 -53 14 -4 18 12 24 166 59 73 16
106 28 113 41 5 10 17 18 26 18 13 0 14 3 6 11 -11 11 -47 6 -228 -31 -46 -10
-94 -7 -131 7 -9 3 -14 -2 -14 -16 0 -26 79 -181 95 -188 20 -7 87 14 235 72
74 30 168 61 209 71 41 9 115 33 165 54 77 32 201 73 471 156 49 15 104 36
348 131 64 26 117 51 117 56 0 11 -71 0 -115 -19 -18 -7 -77 -22 -131 -33 -90
-19 -262 -72 -484 -150 -47 -16 -116 -36 -155 -44 l-70 -14 -30 46 c-24 37
-36 47 -64 49 -32 3 -33 5 -27 35 4 18 23 57 43 87 21 30 83 127 140 215 176
275 177 278 212 256 11 -7 10 -14 -6 -37 -11 -16 -37 -63 -59 -104 -21 -41
-71 -124 -111 -184 -84 -125 -148 -249 -138 -266 10 -16 29 2 75 70 54 79 117
148 153 167 48 24 266 90 359 108 46 8 133 31 194 50 139 43 159 43 207 0 l38
-33 -56 -17 c-32 -9 -82 -27 -114 -41 -31 -14 -96 -36 -146 -49 -125 -33 -234
-70 -340 -115 -49 -20 -112 -43 -140 -51 -126 -33 -259 -119 -184 -119 35 0
220 50 314 85 124 46 284 101 379 131 124 37 221 77 353 144 133 67 152 89
156 170 2 47 -32 88 -100 121 -57 27 -94 15 -171 -56 -42 -38 -69 -55 -97 -60
-100 -18 -389 -97 -471 -129 -51 -19 -111 -38 -134 -42 l-42 -7 50 69 c28 38
54 81 57 97 10 38 41 57 93 57 69 0 131 20 168 55 29 27 34 39 34 77 0 68 -25
140 -62 175 -73 71 -226 112 -293 79z m184 -96 c80 -40 104 -112 57 -167 -63
-73 -236 2 -236 102 0 16 12 38 29 56 36 36 92 39 150 9z m687 -316 c8 -30 -9
-51 -46 -59 -43 -9 -70 2 -70 29 0 59 102 85 116 30z m-1212 -589 c22 -34 20
-52 -9 -71 -32 -21 -56 -15 -74 17 -13 24 -13 29 2 53 22 34 59 34 81 1z"/>
<path d="M6416 7791 c-23 -26 -13 -57 24 -76 37 -19 55 -19 74 1 22 22 20 41
-9 69 -29 30 -66 32 -89 6z"/>
<path d="M7276 7914 c-23 -23 -15 -39 20 -39 24 0 29 4 29 25 0 30 -26 38 -49
14z"/>
<path d="M378 7893 c7 -3 16 -2 19 1 4 3 -2 6 -13 5 -11 0 -14 -3 -6 -6z"/>
<path d="M5505 7840 c-144 -31 -255 -115 -290 -219 -33 -100 -1 -211 88 -308
68 -74 147 -111 281 -133 71 -11 183 8 256 45 153 78 237 276 170 405 -64 124
-214 209 -380 216 -47 2 -103 -1 -125 -6z m256 -102 c64 -29 118 -79 142 -130
21 -44 22 -146 3 -191 -32 -78 -147 -137 -264 -137 -158 0 -253 54 -312 174
-26 55 -23 111 9 174 35 69 93 107 206 136 49 12 162 -1 216 -26z"/>
<path d="M5525 7688 c-100 -36 -153 -145 -111 -226 51 -97 184 -144 308 -108
122 35 166 171 85 263 -63 71 -190 103 -282 71z m169 -91 c48 -27 67 -68 54
-115 -18 -68 -147 -92 -212 -41 -30 24 -48 81 -36 114 24 64 119 85 194 42z"/>
<path d="M7057 7832 c-34 -37 -12 -87 34 -80 32 4 45 31 33 65 -11 34 -44 41
-67 15z"/>
<path d="M7610 7810 c-23 -23 -19 -40 9 -40 24 0 45 25 37 45 -7 21 -22 19
-46 -5z"/>
<path d="M7954 7786 c-7 -31 -1 -42 38 -62 37 -19 58 -12 58 21 0 56 -83 91
-96 41z"/>
<path d="M3687 7780 c-109 -33 -159 -148 -102 -232 29 -43 102 -89 153 -97 31
-5 39 -14 72 -76 20 -38 57 -119 82 -180 26 -60 84 -191 131 -290 46 -99 121
-259 166 -355 107 -229 142 -301 159 -321 11 -14 20 -15 52 -7 22 6 40 15 40
21 0 5 -20 48 -45 96 -111 212 -345 709 -420 891 -24 58 -52 125 -63 150 -38
85 -38 88 5 105 62 25 101 111 82 180 -25 90 -192 151 -312 115z m140 -81 c43
-16 73 -49 73 -80 0 -93 -162 -122 -205 -38 -20 38 -19 51 6 83 34 43 75 55
126 35z"/>
<path d="M3776 7644 c-9 -8 -16 -22 -16 -29 0 -20 37 -37 60 -30 26 8 26 51 1
65 -25 13 -27 13 -45 -6z"/>
<path d="M7814 7756 c-11 -29 1 -61 24 -64 12 -2 22 -9 22 -16 0 -8 8 -20 17
-27 15 -13 16 -12 9 11 -4 14 -7 36 -7 49 2 43 -52 82 -65 47z"/>
<path d="M4835 7736 c-42 -18 -54 -35 -66 -97 -14 -73 -1 -105 51 -127 22 -9
43 -26 46 -37 7 -22 238 -507 283 -595 16 -30 63 -121 105 -202 l77 -148 39
20 c42 22 55 36 41 44 -44 27 -441 850 -441 913 0 12 7 23 15 27 25 9 55 69
55 109 0 82 -113 133 -205 93z m114 -75 c37 -37 -7 -96 -66 -89 -25 3 -28 8
-31 41 -2 21 2 45 9 53 17 20 66 17 88 -5z"/>
<path d="M7666 7715 c-9 -25 -8 -27 22 -23 16 2 27 9 27 18 0 21 -41 25 -49 5z"/>
<path d="M7595 7640 c-32 -33 -17 -42 15 -10 17 17 27 40 17 40 -2 0 -16 -13
-32 -30z"/>
<path d="M7386 7621 c-9 -14 4 -41 19 -41 8 0 11 8 8 20 -6 24 -19 34 -27 21z"/>
<path d="M7752 7618 c-19 -19 -14 -56 8 -63 25 -8 40 1 40 25 0 45 -23 63 -48
38z"/>
<path d="M3195 7601 c-65 -29 -95 -72 -95 -135 0 -60 18 -91 75 -126 31 -19
35 -26 35 -66 0 -24 -2 -44 -5 -44 -3 0 -18 14 -33 31 -66 73 -233 55 -277
-31 -21 -40 -19 -76 6 -120 25 -45 65 -70 112 -70 l35 0 76 -150 c41 -83 106
-217 142 -298 115 -253 322 -672 333 -672 22 0 61 24 61 37 0 8 -43 102 -95
209 -52 108 -95 197 -95 199 0 6 -199 433 -265 569 -67 137 -68 139 -48 155
26 20 43 53 43 83 1 32 155 -280 375 -757 96 -206 195 -418 200 -423 4 -5 85
20 85 25 0 7 -149 329 -258 558 -52 110 -103 220 -114 245 -10 24 -60 131
-109 236 -116 247 -122 283 -49 284 38 0 78 -71 260 -465 50 -110 118 -256
150 -325 32 -69 72 -156 88 -195 17 -38 55 -123 86 -187 l56 -117 42 19 c24
10 43 23 42 27 0 4 -41 91 -91 193 -50 102 -128 266 -173 365 -159 348 -323
700 -332 712 -7 8 -4 30 7 62 14 43 14 53 2 83 -40 93 -170 136 -272 89z m157
-90 c30 -27 31 -30 18 -60 -22 -55 -111 -81 -152 -44 -26 23 -23 75 5 100 45
41 86 43 129 4z m-261 -291 c25 -14 25 -30 0 -30 -28 0 -35 -16 -18 -40 13
-19 16 -20 31 -5 9 9 16 23 16 31 0 8 5 14 10 14 16 0 12 -26 -7 -48 -28 -32
-83 -38 -116 -12 -31 25 -35 50 -9 72 31 28 62 34 93 18z"/>
<path d="M3283 7465 c-3 -9 -3 -18 0 -21 9 -9 27 6 27 22 0 19 -19 18 -27 -1z"/>
<path d="M7604 7576 c-10 -26 1 -51 24 -54 24 -4 27 4 12 42 -11 29 -28 34
-36 12z"/>
<path d="M8835 7581 c49 -12 71 -28 89 -66 25 -52 2 -87 -64 -99 l-35 -6 40
15 c42 16 67 35 48 35 -7 0 -15 -4 -18 -10 -9 -14 -81 -12 -93 3 -8 9 -1 11
33 9 48 -4 85 11 85 34 0 12 -4 11 -20 -4 -22 -21 -82 -19 -100 3 -16 20 5 55
33 55 20 -1 20 -2 5 -11 -10 -5 -18 -19 -18 -29 0 -28 46 -23 59 6 12 28 -3
43 -51 50 -41 7 -65 -15 -70 -65 -3 -30 2 -38 32 -59 29 -20 31 -23 10 -17
-37 11 -70 45 -70 74 0 18 -3 22 -11 14 -8 -8 -6 -21 6 -46 39 -84 212 -90
230 -8 14 66 -48 133 -122 130 l-28 -1 30 -7z"/>
<path d="M8406 7569 c-13 -8 -15 -14 -7 -19 8 -4 10 -17 6 -33 -7 -28 -36 -45
-131 -76 -33 -11 -185 -63 -339 -116 -154 -53 -320 -109 -370 -125 -49 -16
-148 -50 -220 -75 -149 -53 -586 -202 -720 -245 -49 -16 -155 -52 -235 -80
-80 -28 -174 -60 -210 -70 -36 -11 -128 -43 -205 -71 -272 -99 -992 -353
-1224 -431 -96 -32 -218 -75 -270 -97 -53 -21 -141 -53 -196 -71 -55 -18 -145
-51 -200 -73 -55 -21 -152 -56 -215 -77 -63 -21 -162 -57 -220 -80 -58 -23
-150 -58 -205 -77 -55 -20 -129 -46 -165 -59 -36 -13 -135 -48 -220 -78 -85
-30 -207 -73 -270 -96 -253 -92 -572 -204 -720 -252 -41 -14 -131 -46 -200
-72 -178 -67 -321 -119 -505 -181 -294 -100 -290 -98 -289 -120 1 -11 30 -85
64 -165 34 -80 95 -224 135 -320 40 -96 87 -209 105 -250 17 -41 56 -133 85
-205 71 -174 176 -418 185 -430 4 -5 10 -21 13 -35 4 -14 15 -39 26 -56 l19
-32 99 39 c54 21 139 51 188 67 141 47 308 107 333 121 13 7 61 25 105 41 45
15 145 51 222 80 77 29 172 63 210 75 39 13 126 47 195 75 119 49 258 101 470
175 52 19 145 52 205 75 262 100 331 125 515 189 107 38 258 93 335 123 77 31
223 84 325 118 102 34 205 73 230 85 46 24 390 144 555 194 50 15 119 39 155
54 36 14 106 40 155 58 222 79 277 99 385 137 63 22 216 77 340 122 124 45
322 115 440 155 118 40 267 92 330 115 121 43 194 68 375 126 145 47 340 118
586 212 58 23 137 50 175 61 38 10 141 45 229 76 88 32 198 70 245 87 47 16
89 33 94 38 9 9 -77 184 -154 315 -26 44 -98 172 -160 285 -62 113 -145 261
-185 330 -59 102 -171 304 -251 452 -8 14 -14 42 -14 62 0 38 -4 42 -34 25z
m46 -466 c56 -104 122 -211 145 -239 l41 -52 -86 -40 c-48 -22 -111 -45 -140
-51 -29 -6 -72 -21 -95 -32 -23 -12 -69 -30 -102 -39 -33 -10 -83 -27 -111
-38 l-50 -20 -29 66 c-33 76 -117 228 -193 350 l-52 82 27 12 c16 6 52 22 82
35 29 12 57 23 61 23 13 0 122 -184 186 -312 33 -65 65 -118 72 -118 19 0 154
59 170 75 17 15 8 34 -124 256 -51 88 -94 162 -94 164 0 3 8 5 18 5 9 1 49 14
87 29 39 16 73 29 77 30 4 1 53 -83 110 -186z m-772 -131 c71 -34 97 -67 124
-156 l14 -46 -51 -15 c-28 -8 -58 -15 -68 -15 -9 0 -22 -7 -29 -15 -10 -12
-16 -13 -27 -3 -18 15 -53 82 -53 103 0 19 6 19 -76 -9 -82 -28 -124 -47 -124
-56 0 -10 98 -199 136 -261 19 -31 34 -61 34 -66 0 -5 -17 -15 -37 -22 -20 -8
-58 -26 -85 -42 -27 -16 -50 -29 -52 -29 -1 0 -48 91 -105 203 l-103 203 12
44 c16 62 55 115 98 136 21 10 80 33 132 51 116 41 166 41 260 -5z m-656 -164
c3 -18 17 -55 29 -83 l24 -50 -61 -23 c-34 -13 -99 -36 -146 -53 -46 -16 -88
-33 -93 -38 -12 -12 109 -261 128 -261 8 0 62 18 120 40 58 22 111 40 118 40
6 0 31 -31 53 -69 l42 -68 -27 -15 c-14 -9 -66 -32 -116 -53 -49 -20 -91 -38
-93 -40 -2 -2 3 -14 12 -27 8 -12 43 -84 76 -158 34 -74 67 -141 74 -148 10
-11 39 -4 157 37 79 27 151 52 160 55 12 5 20 -4 34 -41 9 -26 28 -65 42 -86
13 -22 23 -40 21 -42 -3 -3 -475 -155 -482 -155 -2 0 -27 42 -57 93 -29 50
-90 152 -136 226 -46 73 -83 137 -83 141 0 12 117 119 142 130 13 6 37 21 54
33 l30 23 -81 -1 c-74 -1 -87 -4 -147 -37 -67 -37 -78 -38 -78 -7 0 26 -142
312 -162 327 -30 22 -101 133 -91 143 5 5 103 43 218 84 116 42 230 84 255 95
59 24 57 25 64 -12z m1756 -275 c47 -97 102 -205 122 -239 20 -34 38 -67 40
-73 2 -6 -35 -27 -82 -46 -64 -26 -87 -32 -93 -22 -35 54 -202 374 -218 420
-12 31 -26 57 -31 57 -11 0 -146 -56 -166 -69 -10 -6 7 -49 72 -182 46 -96
101 -202 120 -236 20 -34 33 -64 28 -67 -4 -2 -43 -19 -87 -36 -44 -17 -83
-36 -86 -41 -3 -6 -27 39 -53 98 -50 113 -167 323 -192 343 -21 18 -17 46 9
67 59 46 235 124 322 143 50 10 115 28 145 39 30 11 57 20 60 20 3 0 43 -79
90 -176z m-2353 -3 c23 -44 37 -82 33 -85 -14 -9 -250 -82 -319 -99 -35 -9
-99 -32 -142 -50 l-79 -34 0 26 c0 43 -18 93 -41 119 -13 12 -21 25 -18 27 19
17 472 171 515 175 5 1 29 -35 51 -79z m-115 -202 c12 -18 88 -163 169 -323
80 -159 175 -345 212 -412 37 -68 67 -130 67 -138 0 -8 -9 -15 -19 -15 -11 0
-22 -4 -25 -9 -4 -5 -29 -15 -56 -22 -28 -7 -50 -16 -50 -21 0 -4 -4 -8 -10
-8 -5 0 -10 6 -10 14 0 18 -143 296 -192 371 -47 73 -62 123 -48 160 18 48 14
58 -24 51 -34 -6 -35 -6 -60 50 -14 31 -46 89 -71 129 -25 40 -48 88 -51 107
-6 32 -4 34 58 65 34 17 68 32 75 32 6 1 22 -14 35 -31z m1311 -4 c12 -20 54
-98 92 -173 80 -156 83 -158 182 -121 88 33 87 30 36 126 l-45 84 34 0 c27 0
80 18 164 56 13 6 114 -189 114 -222 0 -35 -56 -141 -82 -155 -46 -25 -254
-89 -288 -89 -49 0 -191 70 -217 106 -11 16 -57 100 -102 186 l-82 157 78 40
c43 22 82 40 86 41 4 0 18 -16 30 -36z m-1904 -5 c28 -6 62 -20 76 -31 15 -12
63 -97 119 -211 94 -191 94 -191 73 -206 -42 -29 -152 -135 -159 -154 -4 -10
-34 -30 -67 -46 l-59 -28 49 -109 c28 -60 76 -163 109 -229 32 -66 61 -131 65
-143 6 -21 4 -23 -13 -18 -12 4 -44 -6 -87 -29 -37 -19 -69 -35 -70 -35 -2 0
-19 39 -40 86 -71 166 -144 309 -185 364 l-41 55 24 10 c13 6 56 35 96 65 69
53 72 56 68 90 -3 19 -8 42 -11 50 -4 11 9 22 42 38 26 12 55 22 64 22 9 0 20
5 23 10 7 12 -141 311 -149 303 -3 -3 -48 -20 -101 -38 l-95 -32 54 -111 c30
-61 71 -128 90 -150 20 -22 36 -44 36 -50 0 -8 -182 -112 -195 -112 -1 0 -5
17 -8 38 -3 20 -57 136 -121 257 -64 120 -116 222 -116 225 0 3 50 22 112 41
62 19 149 46 193 61 88 29 148 34 224 17z m-659 -252 c43 -21 49 -30 125 -177
44 -85 94 -178 110 -206 l29 -51 -43 -54 -43 -54 26 -3 c42 -5 105 -80 200
-236 49 -80 105 -165 126 -189 l37 -42 -93 -48 -94 -47 -29 58 c-16 33 -41 72
-55 89 -13 16 -70 96 -126 179 -57 82 -104 150 -105 152 -2 2 -103 -54 -113
-63 -5 -4 58 -157 80 -195 35 -61 118 -251 118 -272 0 -17 -3 -18 -15 -8 -8 6
-20 10 -27 7 -7 -3 -4 -6 7 -6 12 -1 -8 -17 -53 -42 -41 -22 -75 -39 -76 -37
-1 2 -35 77 -75 168 -40 91 -97 202 -127 248 -30 46 -52 87 -49 92 3 5 37 26
75 46 38 20 85 52 106 71 32 32 36 41 31 73 -4 35 -3 37 44 64 27 15 49 30 49
33 0 4 -31 71 -70 150 -38 79 -70 148 -70 153 0 6 -2 10 -5 10 -11 0 -191 -61
-203 -69 -18 -11 97 -226 150 -281 l36 -38 -95 -56 c-53 -31 -99 -56 -103 -56
-3 0 -57 105 -120 233 -62 127 -124 244 -138 259 l-24 26 73 22 c41 12 128 42
194 67 65 24 135 48 155 53 50 12 127 2 180 -23z m-647 -233 c15 -46 26 -88
23 -92 -3 -5 -38 -21 -78 -36 -151 -57 -178 -69 -183 -76 -3 -4 15 -43 39 -86
24 -44 57 -110 72 -147 24 -58 26 -70 14 -77 -8 -5 -44 -29 -79 -54 -36 -25
-73 -46 -82 -46 -12 0 -23 16 -35 53 -9 28 -25 68 -34 87 -19 38 -60 157 -60
174 0 6 11 12 25 12 60 4 106 40 74 60 -6 3 -62 -11 -125 -32 -63 -20 -115
-35 -116 -33 -16 25 -78 152 -76 154 2 1 102 37 223 80 121 42 249 92 285 110
36 19 70 34 75 34 6 0 23 -38 38 -85z m1687 -169 c86 -173 107 -207 179 -294
33 -41 59 -76 58 -77 -10 -10 -191 -73 -197 -69 -24 15 -119 173 -185 307 -41
84 -79 158 -85 165 -6 8 4 20 38 41 67 42 105 62 117 59 6 -2 39 -61 75 -132z
m-2368 -52 c41 -38 108 -161 108 -200 0 -14 -18 -26 -70 -47 -39 -15 -74 -25
-79 -22 -5 3 -18 30 -31 60 l-22 54 -66 -30 c-37 -16 -81 -36 -98 -44 l-32
-14 50 -117 c27 -64 65 -145 85 -180 l35 -63 -29 0 c-15 0 -61 -18 -102 -41
-40 -22 -75 -38 -76 -37 -1 2 -7 24 -14 51 -6 26 -39 102 -72 168 -33 66 -65
144 -71 173 -11 50 -10 57 16 110 15 31 42 67 59 80 29 22 324 135 354 136 7
0 32 -17 55 -37z m818 -71 c77 -116 83 -152 36 -223 -16 -24 -28 -46 -26 -49
2 -3 16 -9 31 -15 21 -8 58 -57 155 -205 70 -107 138 -207 152 -222 14 -15 24
-29 21 -31 -9 -7 -85 -37 -99 -39 -8 -2 -20 -9 -26 -17 -9 -11 -15 -6 -34 25
-13 22 -53 80 -90 129 -36 50 -101 140 -144 202 -42 61 -84 114 -92 117 -8 3
-25 1 -38 -5 l-24 -11 38 -87 c70 -159 137 -305 169 -370 18 -34 31 -64 29
-65 -2 -2 -32 -13 -68 -25 -36 -13 -73 -30 -83 -39 -9 -8 -19 -13 -20 -11 -2
2 -54 106 -115 232 -61 125 -120 240 -131 256 l-21 29 70 40 c38 22 83 43 100
47 22 5 32 14 36 33 10 45 26 93 39 119 14 27 10 49 -23 123 -12 25 -24 68
-28 97 -7 58 -5 60 76 62 l45 1 65 -98z m-1403 -268 c-28 -19 -287 -114 -312
-114 -10 0 -15 -5 -12 -12 33 -86 94 -220 107 -238 l16 -22 130 42 c71 23 134
44 140 46 7 3 14 -9 18 -28 3 -18 19 -53 35 -77 17 -25 28 -47 26 -51 -2 -3
-59 -30 -127 -60 -68 -29 -124 -55 -126 -56 -5 -3 63 -190 92 -256 43 -94 38
-92 141 -59 50 15 123 42 164 59 85 37 81 36 81 17 0 -8 16 -44 35 -81 36 -67
43 -94 25 -94 -6 0 -52 -15 -103 -34 -51 -19 -157 -58 -237 -87 -80 -28 -150
-56 -156 -60 -8 -6 -23 21 -49 83 -67 161 -142 312 -178 360 l-35 46 21 20
c12 11 56 41 97 68 87 57 103 70 120 103 12 24 12 24 -36 19 -32 -3 -87 -23
-156 -57 -59 -29 -111 -50 -117 -46 -16 9 -13 53 5 85 16 27 16 29 -14 67 -18
21 -61 103 -96 181 -36 78 -73 156 -82 172 -10 16 -16 31 -13 33 2 2 81 32
174 66 94 35 213 83 265 105 l95 42 32 -91 c17 -49 31 -90 30 -91z m-978 -221
c40 -80 174 -385 200 -457 16 -44 18 -56 7 -47 -16 14 -36 5 -116 -48 -25 -17
-50 -31 -56 -31 -6 0 -18 21 -26 48 -24 71 -75 197 -105 255 -31 61 -113 249
-113 259 0 3 21 14 48 23 26 9 63 24 82 35 19 11 38 19 42 20 4 0 21 -26 37
-57z m-293 -128 c14 -39 27 -77 30 -85 4 -12 -32 -30 -153 -79 -87 -36 -159
-65 -161 -67 -2 -1 8 -24 21 -51 13 -26 40 -91 61 -144 l37 -96 122 47 c67 26
130 51 140 55 14 6 17 1 17 -34 0 -22 9 -63 20 -91 11 -28 20 -53 20 -55 0 -2
-25 -13 -55 -24 -57 -22 -152 -67 -171 -82 -12 -9 22 -125 77 -262 25 -62 35
-77 48 -71 9 3 84 32 166 64 l150 57 28 -90 c29 -91 29 -117 2 -117 -8 0 -115
-34 -237 -75 -123 -41 -228 -75 -233 -75 -6 0 -28 48 -49 106 -44 121 -121
282 -160 333 -21 28 -23 37 -13 49 10 12 82 63 191 134 13 8 134 63 159 71 28
10 19 26 -19 33 -37 7 -129 -19 -256 -72 -75 -31 -137 -41 -149 -23 -5 8 -2
20 8 31 15 16 14 22 -15 75 -16 32 -49 103 -72 158 -23 55 -60 135 -81 179
-22 43 -38 79 -37 80 2 1 55 18 118 39 63 20 180 64 260 96 80 33 149 59 153
58 5 -1 19 -34 33 -72z m1846 -153 c38 -81 76 -153 83 -161 13 -13 22 -13 70
3 31 9 70 30 87 45 l32 28 -27 46 c-15 25 -27 50 -27 56 0 6 31 10 78 10 42 0
85 3 94 6 24 9 46 -30 63 -113 15 -69 12 -102 -7 -102 -5 0 -6 -4 -3 -10 3 -5
2 -10 -4 -10 -6 0 -8 -7 -5 -15 14 -35 -104 -96 -254 -131 -57 -13 -70 -13
-115 0 -97 29 -140 73 -238 246 -48 85 -88 160 -88 167 -1 7 20 24 47 39 26
15 63 41 81 57 l35 30 15 -22 c8 -12 45 -88 83 -169z m-1287 -326 c29 -49 115
-280 115 -308 0 -10 3 -18 6 -18 3 0 78 27 167 60 88 33 161 59 162 58 7 -13
65 -160 65 -167 0 -10 -149 -70 -327 -131 -61 -21 -126 -46 -143 -55 -18 -9
-34 -15 -36 -12 -2 2 -33 80 -69 173 -36 93 -81 202 -100 243 -19 40 -35 77
-35 82 0 5 19 21 43 35 23 15 57 40 75 55 18 16 37 29 42 29 5 0 21 -20 35
-44z"/>
<path d="M8863 6223 c9 -2 23 -2 30 0 6 3 -1 5 -18 5 -16 0 -22 -2 -12 -5z"/>
<path d="M7444 7521 c3 -18 6 -37 6 -42 0 -5 9 -9 20 -9 27 0 25 23 -6 57
l-26 28 6 -34z"/>
<path d="M4285 7370 c-22 -11 -51 -29 -65 -40 l-25 -20 23 0 c13 0 33 -10 45
-22 23 -23 275 -518 407 -800 l74 -156 28 14 c15 8 36 14 48 14 25 0 25 2 -3
48 -13 20 -102 195 -198 387 -96 193 -196 388 -221 435 -25 47 -49 102 -52
123 -4 20 -10 37 -14 37 -4 0 -25 -9 -47 -20z"/>
<path d="M3615 7326 c-17 -13 -16 -17 29 -101 26 -49 52 -95 57 -104 24 -42
204 -443 221 -493 15 -44 24 -58 40 -58 27 0 58 -18 58 -34 0 -26 -41 -26 -76
0 -21 17 -34 21 -39 14 -9 -14 18 -44 71 -81 35 -24 48 -44 89 -139 26 -61 61
-129 77 -151 28 -39 31 -40 71 -34 23 4 43 9 45 10 2 2 -23 52 -56 112 -33 60
-87 174 -122 253 -34 79 -102 228 -150 330 -48 102 -102 219 -120 260 -33 76
-91 181 -118 213 -18 20 -51 22 -77 3z"/>
<path d="M4074 7301 c7 -47 67 -182 230 -521 68 -140 148 -308 179 -373 31
-64 64 -120 73 -124 9 -3 25 -1 35 5 10 7 26 12 35 12 8 0 14 3 12 8 -2 4 -30
61 -62 127 -153 314 -409 842 -418 861 -11 23 -47 44 -75 44 -13 0 -14 -7 -9
-39z"/>
<path d="M5260 7094 c0 -11 9 -34 20 -52 18 -29 24 -32 57 -28 21 3 105 8 186
11 165 6 200 15 188 49 -8 20 -14 21 -202 21 -107 0 -206 4 -221 9 -24 7 -28
5 -28 -10z"/>
<path d="M5655 6989 c-78 -21 -262 -27 -307 -10 -24 9 -28 8 -28 -7 1 -28 38
-102 55 -108 9 -4 25 2 38 13 12 11 38 23 57 27 19 4 45 9 57 12 12 2 75 24
140 49 124 46 118 59 -12 24z"/>
<path d="M2655 6937 c-75 -36 -102 -105 -66 -175 22 -44 56 -67 118 -80 37 -8
38 -9 37 -54 -1 -24 -11 -62 -21 -84 -11 -21 -28 -68 -38 -103 l-19 -63 81
-162 c73 -144 151 -311 211 -449 12 -26 28 -50 37 -53 23 -9 65 12 65 33 0 17
-95 229 -226 502 -67 139 -73 164 -50 196 23 33 46 125 46 181 0 41 4 56 20
67 26 18 41 61 42 118 0 56 -12 80 -53 110 -39 27 -140 36 -184 16z m139 -83
c9 -8 16 -26 16 -39 0 -36 -26 -55 -74 -55 -47 0 -66 13 -66 45 0 50 89 85
124 49z"/>
<path d="M2985 6747 c-8 -7 -19 -35 -24 -62 -6 -39 -16 -59 -48 -90 -29 -29
-43 -54 -52 -92 -17 -69 -2 -103 54 -121 24 -7 54 -29 77 -54 l36 -41 -29 -40
c-37 -51 -44 -91 -24 -147 20 -56 58 -97 99 -105 60 -12 64 -15 76 -63 6 -26
20 -67 31 -90 l19 -44 42 7 c24 4 46 9 50 11 3 2 -10 44 -29 93 -20 49 -33 96
-30 104 3 8 19 24 35 36 l30 21 23 -36 c12 -21 34 -67 49 -103 28 -70 40 -78
84 -61 22 8 26 14 21 33 -4 12 -58 130 -120 262 -63 132 -118 252 -124 268 -9
23 -17 27 -48 28 -69 2 -87 12 -101 54 -7 22 -24 51 -38 66 -30 32 -30 56 1
98 19 26 22 38 14 52 -5 11 -13 19 -17 20 -4 0 -15 2 -24 4 -9 2 -24 -2 -33
-8z m30 -227 c0 -18 -64 -62 -84 -58 -23 5 -25 37 -5 59 22 24 89 23 89 -1z
m122 -92 c10 -13 26 -60 37 -110 6 -27 5 -28 -37 -28 -49 0 -63 11 -96 77
l-21 42 22 15 c27 19 82 21 95 4z m61 -189 c100 -35 71 -164 -40 -176 -112
-12 -166 80 -93 160 28 30 77 36 133 16z"/>
<path d="M3114 6154 c-8 -32 23 -68 49 -58 22 8 33 50 17 69 -21 25 -59 19
-66 -11z"/>
<path d="M2075 6501 c-69 -17 -143 -78 -164 -134 -16 -40 -13 -133 3 -166 21
-41 88 -97 132 -112 69 -22 152 -17 215 14 57 28 85 33 106 19 20 -13 223
-432 223 -461 0 -17 -58 -13 -141 10 -157 43 -152 43 -216 13 -67 -31 -160
-64 -180 -64 -9 0 -13 14 -13 44 l0 44 68 23 c37 12 92 34 123 50 30 15 72 31
92 34 21 4 48 16 60 26 l22 19 -24 20 c-39 33 -54 30 -256 -54 -118 -49 -139
-53 -169 -31 -45 34 -161 5 -204 -50 -27 -34 -46 -100 -37 -132 9 -38 73 -100
120 -119 51 -19 101 -13 154 17 18 11 87 38 154 60 l121 41 103 -32 c120 -38
134 -37 284 10 l101 32 -39 37 c-31 28 -51 62 -87 149 -26 62 -74 168 -105
236 l-58 122 -62 17 c-47 13 -61 21 -61 36 0 25 10 27 108 23 l83 -4 61 -121
c64 -129 160 -341 187 -417 9 -25 18 -47 21 -49 3 -2 22 -1 43 3 37 7 38 8 32
39 -9 41 -55 151 -165 392 -124 272 -134 289 -161 274 -11 -5 -57 -13 -103
-16 l-84 -6 -7 33 c-20 90 -166 158 -280 131z m146 -104 c58 -39 74 -98 44
-161 -33 -69 -137 -89 -209 -40 -75 51 -79 133 -10 193 29 26 43 31 88 31 39
0 62 -6 87 -23z m-294 -699 c29 -27 30 -67 2 -102 -30 -39 -75 -33 -106 13
-28 42 -28 51 -2 85 26 33 73 35 106 4z"/>
<path d="M2092 6337 c-37 -39 -25 -85 29 -107 30 -13 33 -12 60 18 35 39 37
75 7 96 -32 23 -71 20 -96 -7z"/>
<path d="M2603 6414 c-14 -14 -23 -27 -20 -30 10 -10 57 20 57 38 0 24 -6 23
-37 -8z"/>
<path d="M9203 6038 c-2 -5 -14 -8 -26 -8 -28 0 -127 -36 -141 -51 -12 -13
-23 -15 144 30 63 18 116 34 118 36 2 2 -17 3 -43 2 -26 -1 -49 -5 -52 -9z"/>
<path d="M1701 5974 c-12 -15 -21 -32 -21 -38 0 -20 23 -36 50 -36 33 0 50 17
50 50 0 53 -45 67 -79 24z"/>
<path d="M8410 5750 c-18 -12 -2 -12 25 0 13 6 15 9 5 9 -8 0 -22 -4 -30 -9z"/>
<path d="M1532 5684 c-47 -33 -7 -48 50 -18 24 12 28 18 17 25 -21 13 -42 11
-67 -7z"/>
<path d="M1347 5663 c-4 -3 -7 -17 -7 -29 0 -24 18 -32 62 -26 27 4 27 5 12
33 -14 28 -50 40 -67 22z"/>
<path d="M9106 5648 c-37 -52 -3 -105 59 -94 28 6 35 11 35 31 0 27 -45 85
-65 85 -8 0 -21 -10 -29 -22z"/>
<path d="M1578 5599 c-21 -12 -24 -59 -6 -77 7 -7 23 -12 36 -12 23 0 24 -3
19 -35 -6 -38 -5 -40 23 -25 17 9 17 13 3 57 -31 96 -43 111 -75 92z"/>
<path d="M7950 5580 c-13 -8 -13 -10 2 -10 9 0 20 5 23 10 8 13 -5 13 -25 0z"/>
<path d="M8926 5574 c-42 -42 -1 -100 67 -95 26 2 21 44 -9 80 -29 35 -36 37
-58 15z"/>
<path d="M1403 5520 c-25 -10 -30 -29 -11 -48 29 -29 76 4 62 42 -7 18 -18 19
-51 6z"/>
<path d="M8763 5513 c-16 -6 -17 -45 -1 -61 15 -15 74 -16 83 -2 3 5 -2 23
-12 40 -16 29 -39 36 -70 23z"/>
<path d="M1246 5497 c-11 -8 -17 -23 -14 -38 2 -20 9 -25 41 -27 41 -4 45 4
22 48 -17 34 -23 36 -49 17z"/>
<path d="M7975 5489 c-83 -18 -115 -32 -115 -49 0 -33 26 -43 103 -37 53 3 87
0 130 -13 31 -10 57 -15 57 -11 0 14 -109 121 -122 120 -7 -1 -31 -5 -53 -10z"/>
<path d="M8618 5459 c-36 -21 -16 -79 27 -79 44 0 58 37 25 70 -23 23 -28 24
-52 9z"/>
<path d="M1065 5437 c-31 -26 -29 -53 7 -87 25 -23 44 -17 64 23 15 28 15 32
-3 55 -26 35 -37 37 -68 9z"/>
<path d="M1424 5435 c-7 -17 8 -67 22 -72 5 -2 18 3 28 10 17 13 17 15 2 45
-17 34 -43 42 -52 17z"/>
<path d="M8214 5421 c-46 -28 -64 -60 -64 -109 0 -81 63 -157 129 -156 79 2
161 74 161 141 0 34 -33 87 -72 116 -39 29 -115 33 -154 8z m114 -99 c7 -20 6
-31 -3 -39 -7 -7 -15 -17 -17 -24 -7 -20 -44 -1 -46 23 -4 44 7 68 32 68 17 0
27 -8 34 -28z"/>
<path d="M1283 5393 c-20 -7 -17 -73 3 -73 44 0 69 41 42 68 -13 13 -24 14
-45 5z"/>
<path d="M8464 5386 c-3 -8 -4 -25 -2 -38 2 -18 10 -24 36 -26 40 -4 51 18 28
53 -18 27 -53 33 -62 11z"/>
<path d="M8847 5368 c-10 -5 -17 -21 -17 -38 0 -26 4 -30 28 -30 37 0 55 14
48 36 -8 27 -39 44 -59 32z"/>
<path d="M7321 5349 c-14 -5 -30 -8 -37 -5 -8 3 -11 -1 -8 -9 5 -12 11 -12 42
1 20 8 38 17 41 19 7 8 -12 5 -38 -6z"/>
<path d="M7403 5328 c-18 -21 -43 -72 -27 -55 4 4 12 3 18 -2 6 -4 33 -11 60
-15 27 -3 93 -26 146 -50 53 -25 119 -50 146 -57 27 -6 55 -16 62 -22 18 -14
15 -37 -5 -38 -19 -1 19 -13 101 -31 37 -8 60 -8 93 0 51 14 68 5 121 -63 24
-32 32 -52 32 -84 0 -23 6 -50 12 -61 11 -17 10 -25 -3 -48 -8 -15 -22 -26
-30 -25 -49 6 -262 68 -331 97 -46 18 -141 52 -211 74 -84 27 -154 56 -200 85
-40 25 -87 52 -106 62 -29 15 -32 19 -19 31 8 8 31 17 50 20 30 5 49 -1 119
-41 133 -74 282 -103 355 -69 l39 19 -76 11 c-44 7 -100 24 -135 42 -32 16
-94 44 -137 62 -42 17 -84 41 -91 52 -11 15 -22 19 -43 15 -53 -11 -208 -58
-433 -131 -124 -41 -251 -79 -282 -86 -32 -6 -60 -15 -63 -20 -13 -21 45 -110
72 -110 7 0 50 19 96 41 109 55 177 80 335 123 73 20 135 36 137 36 3 0 5 -9
5 -19 0 -40 146 -134 295 -190 33 -13 92 -36 130 -52 39 -15 99 -36 135 -44
36 -9 103 -33 149 -52 l83 -36 -23 -18 c-34 -26 -55 -24 -166 17 -231 84 -286
105 -433 162 -85 32 -184 74 -219 92 -42 21 -86 34 -123 38 l-59 5 -43 -45
c-50 -52 -58 -81 -40 -135 18 -51 52 -79 114 -92 85 -18 143 7 179 77 9 18 17
21 39 16 58 -13 212 -69 302 -109 52 -23 147 -59 210 -80 157 -52 167 -57 180
-106 23 -84 116 -149 237 -164 40 -5 57 -2 103 22 63 33 93 75 94 137 1 60
-19 97 -74 136 -27 19 -48 40 -45 45 69 164 84 191 122 217 48 33 48 44 -6
144 -26 48 -46 72 -64 78 -15 6 -30 7 -33 3 -4 -3 5 -38 20 -77 33 -91 34
-120 3 -120 -28 0 -47 20 -119 125 -42 61 -57 91 -60 127 -10 87 -50 122 -156
134 l-62 7 -41 -42 c-54 -54 -73 -53 -228 9 -138 56 -177 61 -208 28z m586
-119 c32 -35 8 -63 -59 -70 -45 -4 -52 13 -23 62 21 35 54 38 82 8z m-904
-333 c29 -29 24 -50 -15 -66 -39 -16 -63 -10 -78 22 -29 62 42 95 93 44z
m1087 -265 c41 -18 78 -62 78 -93 0 -23 -34 -48 -74 -55 -80 -13 -168 52 -150
110 18 59 67 72 146 38z"/>
<path d="M8105 4586 c-23 -16 -14 -42 19 -57 49 -23 77 19 38 54 -22 21 -33
21 -57 3z"/>
<path d="M7248 5313 c7 -3 16 -2 19 1 4 3 -2 6 -13 5 -11 0 -14 -3 -6 -6z"/>
<path d="M6802 5173 c-24 -8 -41 -17 -39 -19 4 -5 97 26 97 32 0 6 -11 4 -58
-13z"/>
<path d="M9071 5111 c-24 -18 -24 -18 -5 -44 21 -30 41 -33 69 -13 16 12 17
17 6 45 -15 35 -35 39 -70 12z"/>
<path d="M8917 5062 c-22 -24 -21 -35 3 -57 14 -12 27 -15 47 -10 37 9 44 23
27 57 -17 33 -52 37 -77 10z"/>
<path d="M8790 5013 c-8 -3 -22 -11 -30 -18 -8 -6 -79 -31 -157 -56 -79 -24
-143 -47 -143 -52 0 -5 8 -6 18 -2 35 14 59 17 139 19 88 2 98 6 98 39 0 23
21 27 60 12 l20 -8 -20 16 c-19 16 -18 16 24 17 35 0 42 3 37 16 -3 9 -6 18
-6 20 0 5 -21 4 -40 -3z"/>
<path d="M6393 4983 c-13 -2 -23 -9 -23 -15 0 -12 97 -201 325 -633 81 -154
181 -347 222 -430 41 -82 90 -175 109 -206 19 -31 34 -62 34 -68 0 -7 -10 -26
-22 -42 -48 -64 -17 -181 62 -233 98 -66 223 -39 270 60 17 35 21 57 17 97 -4
43 -10 56 -44 88 -42 39 -94 59 -153 59 -32 0 -37 4 -49 35 -12 35 -57 121
-261 500 -57 105 -142 264 -190 355 -117 222 -220 412 -232 428 -10 12 -23 13
-65 5z m867 -1441 c28 -23 29 -67 2 -94 -11 -12 -38 -22 -63 -25 -37 -4 -48
-1 -66 19 -57 61 -30 118 56 118 32 0 56 -6 71 -18z"/>
<path d="M7167 3524 c-15 -16 -7 -53 14 -59 27 -9 42 6 37 36 -3 24 -36 38
-51 23z"/>
<path d="M6235 4919 c-11 -4 -32 -8 -47 -8 -29 -1 -35 -10 -17 -28 13 -13 268
-503 360 -693 39 -80 110 -224 158 -320 49 -96 117 -238 152 -315 44 -96 77
-153 105 -182 22 -24 45 -43 51 -43 19 0 21 38 3 77 -9 21 -23 56 -30 78 -36
113 -235 522 -551 1135 -159 309 -159 309 -184 299z"/>
<path d="M6022 4850 c-13 -12 -22 -33 -22 -49 0 -35 47 -139 94 -210 48 -71
48 -96 -1 -108 -42 -10 -63 -39 -63 -88 0 -89 111 -153 192 -111 25 13 27 13
51 -33 34 -62 50 -104 36 -96 -5 4 -30 1 -55 -6 -39 -12 -44 -16 -41 -39 4
-28 33 -46 90 -53 21 -3 40 -7 41 -8 40 -52 109 -175 139 -249 8 -19 48 -96
89 -170 41 -74 96 -178 123 -230 26 -52 56 -109 67 -127 16 -27 18 -38 9 -70
-29 -103 9 -192 99 -229 19 -9 64 -18 100 -20 55 -4 71 -2 105 18 22 13 50 39
63 58 20 30 23 45 20 96 -5 77 -36 122 -110 158 -51 24 -55 25 -115 12 -56
-11 -65 -11 -77 3 -19 21 -177 328 -431 836 -184 369 -364 717 -377 730 -2 3
-14 -4 -26 -15z m177 -449 c8 -14 5 -23 -13 -40 -28 -26 -42 -27 -56 -1 -8 14
-8 26 0 40 14 25 56 26 69 1z m834 -1223 c60 -42 20 -128 -59 -128 -106 0
-146 122 -49 148 38 11 73 4 108 -20z"/>
<path d="M6919 3144 c-11 -14 -10 -18 6 -30 10 -8 29 -14 42 -14 31 0 42 29
18 46 -25 19 -50 18 -66 -2z"/>
<path d="M6676 4817 c7 -33 63 -150 86 -179 8 -10 78 -36 172 -63 88 -25 163
-48 167 -51 4 -2 -4 -17 -18 -32 -14 -15 -32 -40 -41 -57 -21 -40 -27 -161
-12 -224 22 -92 125 -183 258 -226 76 -24 228 -18 297 14 68 30 118 81 150
154 24 52 27 69 23 131 -11 166 -125 274 -336 317 -50 10 -79 10 -151 0 -78
-11 -93 -10 -127 4 -22 9 -100 30 -174 47 -74 16 -140 34 -147 40 -7 5 -15 29
-19 53 -9 60 -21 73 -82 90 l-53 14 7 -32z m778 -323 c93 -32 196 -154 196
-233 0 -36 -28 -97 -57 -123 -38 -35 -116 -61 -183 -62 -76 -1 -140 21 -200
68 -63 49 -80 82 -80 149 0 136 78 217 211 217 36 0 87 -7 113 -16z"/>
<path d="M7280 4418 c-50 -34 -71 -69 -73 -120 -6 -153 251 -220 341 -88 33
50 30 110 -8 154 -66 75 -191 101 -260 54z"/>
<path d="M5797 4769 c-11 -6 -29 -9 -42 -7 -21 5 -23 3 -13 -21 5 -14 32 -69
59 -121 68 -131 332 -676 379 -782 68 -152 98 -204 132 -230 22 -17 39 -43 51
-79 36 -103 87 -199 106 -199 21 0 51 30 51 51 0 27 -98 239 -132 286 -19 27
-90 161 -157 298 -68 138 -138 275 -156 305 -19 31 -57 107 -85 170 -67 151
-161 340 -169 340 -3 0 -14 -5 -24 -11z"/>
<path d="M5562 4698 l-32 -11 106 -206 c116 -223 259 -521 360 -751 46 -104
75 -155 104 -185 24 -24 42 -54 46 -75 4 -19 43 -106 88 -193 80 -156 80 -158
64 -185 -55 -88 -61 -105 -55 -166 6 -67 23 -95 86 -143 90 -69 244 -84 315
-30 40 31 71 84 81 138 15 80 -44 186 -121 220 -24 11 -79 23 -122 27 l-77 7
-25 50 c-14 28 -40 76 -58 108 -19 31 -53 104 -76 161 -24 60 -57 121 -79 146
-20 24 -45 66 -56 94 -26 70 -236 514 -370 784 -118 237 -113 231 -179 210z
m964 -1674 c19 -9 46 -30 60 -47 21 -25 25 -38 20 -66 -8 -52 -57 -91 -115
-91 -38 0 -49 5 -82 40 -67 71 -61 132 16 166 40 18 60 17 101 -2z"/>
<path d="M6430 2967 c0 -18 28 -55 51 -68 15 -7 24 -7 35 2 20 16 18 35 -8 59
-24 22 -78 27 -78 7z"/>
<path d="M5378 4633 c-36 -14 -49 -35 -29 -47 9 -6 197 -382 336 -675 48 -102
103 -210 122 -242 33 -54 34 -59 22 -98 -22 -73 28 -178 103 -217 50 -26 127
11 113 55 -3 11 -14 22 -23 25 -22 8 -46 56 -27 56 22 0 25 27 4 46 -29 26
-111 166 -149 254 -52 120 -421 860 -428 859 -4 0 -24 -7 -44 -16z"/>
<path d="M5168 4563 l-27 -4 43 -92 c144 -308 506 -1063 530 -1107 17 -29 50
-37 72 -19 30 24 15 65 -131 364 -45 94 -117 244 -160 335 -42 91 -117 247
-166 348 -96 196 -87 186 -161 175z"/>
<path d="M4988 4484 c-16 -8 -28 -19 -28 -24 0 -5 43 -100 96 -212 53 -111
104 -223 114 -248 10 -25 45 -99 78 -165 33 -66 71 -147 85 -180 36 -84 86
-191 231 -489 69 -142 126 -261 126 -263 0 -1 -11 -3 -25 -3 -14 0 -41 -6 -59
-14 l-34 -14 -45 101 c-25 56 -48 112 -51 123 -4 12 -55 120 -115 240 -99 200
-213 442 -351 744 -75 165 -170 350 -180 350 -12 0 -80 -30 -80 -35 0 -3 28
-60 62 -128 63 -125 142 -295 253 -542 130 -289 362 -765 418 -857 26 -44 28
-51 17 -84 -18 -55 2 -135 46 -184 48 -53 89 -70 172 -70 62 0 75 4 118 33 64
42 108 122 101 185 -6 58 -46 115 -99 141 -39 19 -48 30 -90 118 -80 167 -257
541 -328 693 -241 518 -359 761 -378 783 -18 20 -19 20 -54 1z m764 -1674 c30
0 78 -49 78 -80 0 -64 -78 -117 -146 -99 -50 13 -74 42 -74 89 0 63 47 105
105 94 11 -2 28 -4 37 -4z"/>
<path d="M5664 2745 c-9 -24 25 -57 55 -53 22 2 26 8 26 33 0 27 -3 30 -38 33
-27 2 -39 -1 -43 -13z"/>
<path d="M4591 4343 c-21 -4 -23 -9 -18 -41 3 -21 32 -93 64 -162 136 -284
260 -563 339 -755 31 -77 67 -161 80 -187 29 -57 30 -70 4 -85 -51 -32 -69
-142 -34 -203 53 -90 188 -103 271 -26 30 27 36 41 40 83 4 41 1 59 -16 87
-21 34 -90 76 -124 76 -12 0 -17 8 -17 27 0 15 -24 79 -54 142 -101 219 -241
530 -312 696 -67 155 -169 350 -184 351 -8 1 -26 -1 -39 -3z m632 -1320 c26
-15 -11 -103 -43 -103 -37 0 -80 40 -80 75 0 33 83 52 123 28z"/>
<path d="M4390 4264 c-19 -8 -36 -16 -37 -18 -4 -4 38 -97 140 -307 58 -119
81 -158 102 -167 29 -14 81 -16 89 -4 8 13 -230 507 -245 509 -8 1 -30 -4 -49
-13z"/>
<path d="M4148 4173 c-13 -15 -15 -35 -11 -110 4 -67 9 -93 19 -93 7 0 15 -4
18 -8 8 -13 -87 -137 -189 -249 -50 -54 -134 -159 -186 -233 -127 -179 -126
-178 -138 -229 l-9 -43 40 5 c50 7 67 22 119 111 79 134 178 261 283 364 58
56 122 128 143 160 20 31 50 71 65 88 l29 31 -36 64 c-57 102 -99 159 -116
159 -9 0 -23 -8 -31 -17z"/>
<path d="M3806 4105 c-25 -19 -9 -19 24 0 14 8 19 14 10 14 -8 0 -24 -6 -34
-14z"/>
<path d="M4003 4067 c-17 -37 -48 -53 -128 -67 -38 -6 -97 -22 -130 -35 -64
-25 -157 -45 -212 -45 -28 0 -37 -6 -51 -31 -32 -59 -196 -274 -257 -336 -75
-77 -99 -84 -156 -46 -36 24 -53 28 -108 28 -109 0 -165 -48 -178 -152 -8 -72
15 -115 80 -148 63 -31 119 -32 172 -2 48 27 80 73 89 126 5 34 10 40 38 46
95 21 145 67 280 260 109 155 165 205 233 205 14 0 25 -4 25 -8 0 -5 -30 -42
-67 -83 -74 -81 -144 -172 -147 -192 -1 -6 -8 -23 -15 -35 -7 -13 -11 -25 -9
-27 2 -2 32 18 66 44 74 58 149 141 208 231 23 36 50 72 60 81 18 16 124 42
133 33 7 -7 -24 -57 -93 -154 -121 -168 -215 -279 -269 -315 -29 -19 -81 -66
-115 -104 -51 -57 -62 -76 -62 -105 0 -19 5 -38 10 -41 14 -9 118 15 130 30 5
7 14 39 18 73 7 49 16 70 46 107 21 25 54 58 74 73 93 69 242 243 372 436 l33
48 -19 37 c-10 20 -23 49 -29 65 l-11 28 -11 -25z m-993 -647 c29 -29 25 -64
-11 -94 -39 -33 -72 -33 -98 0 -27 34 -27 62 1 91 27 29 80 31 108 3z"/>
<path d="M1 1918 l-1 -1918 765 0 c421 0 765 4 765 9 0 4 -124 318 -276 697
-152 379 -298 743 -324 809 -26 66 -74 181 -105 255 -32 74 -77 182 -100 240
-24 58 -63 155 -88 215 -124 303 -550 1376 -590 1485 l-46 125 0 -1917z"/>
<path d="M4335 3703 c-168 -22 -327 -150 -365 -292 -24 -89 38 -281 120 -375
66 -75 208 -126 350 -127 274 0 442 157 428 399 -11 186 -147 330 -363 386
-57 15 -105 18 -170 9z m230 -138 c119 -60 187 -159 187 -274 0 -86 -23 -141
-79 -191 -98 -86 -264 -105 -393 -44 -90 42 -124 75 -161 150 -60 121 -36 232
70 325 60 53 115 69 226 66 76 -2 99 -7 150 -32z"/>
<path d="M4340 3514 c-64 -17 -118 -57 -143 -105 -37 -70 -3 -189 70 -246 66
-52 83 -57 178 -58 105 0 140 14 184 75 123 170 -71 395 -289 334z m143 -98
c48 -20 69 -50 75 -104 3 -40 0 -53 -19 -76 -44 -51 -155 -48 -209 5 -24 25
-30 39 -30 75 0 57 13 82 53 99 41 18 89 19 130 1z"/>
<path d="M2180 3510 c-14 -4 -53 -21 -86 -39 -39 -20 -80 -32 -113 -34 -28 -2
-59 -11 -68 -19 -10 -9 -45 -30 -78 -46 -74 -38 -68 -41 11 -6 33 15 104 41
159 60 118 39 248 94 220 93 -11 0 -31 -4 -45 -9z"/>
<path d="M1755 3340 c-3 -5 -1 -10 4 -10 6 0 11 5 11 10 0 6 -2 10 -4 10 -3 0
-8 -4 -11 -10z"/>
<path d="M1660 3317 c0 -15 4 -27 9 -27 17 0 19 15 5 35 -13 18 -14 18 -14 -8z"/>
<path d="M1715 3320 c-16 -7 -17 -9 -3 -9 9 -1 20 4 23 9 7 11 7 11 -20 0z"/>
<path d="M2626 3274 c-12 -30 -6 -51 18 -64 32 -17 54 -7 62 26 5 20 2 31 -11
41 -25 18 -62 17 -69 -3z"/>
<path d="M2488 3266 c-29 -22 -21 -86 11 -86 40 0 53 43 24 79 -16 17 -20 18
-35 7z"/>
<path d="M2328 3205 c-8 -19 -8 -31 0 -50 12 -27 32 -31 63 -15 23 13 24 38 3
68 -20 29 -52 28 -66 -3z"/>
<path d="M3840 3175 c-19 -7 -45 -11 -57 -8 -21 5 -121 -20 -155 -38 -16 -9
-16 -12 -1 -44 9 -19 20 -35 23 -35 19 0 153 52 208 80 90 47 77 81 -18 45z
m-5 -35 c-27 -12 -43 -12 -25 0 8 5 22 9 30 9 10 0 8 -3 -5 -9z"/>
<path d="M2192 3154 c-17 -12 -22 -24 -20 -46 4 -40 28 -56 62 -40 30 14 36
61 10 86 -19 20 -24 20 -52 0z"/>
<path d="M1997 3093 c-12 -12 -7 -60 7 -72 20 -17 67 -10 79 11 8 12 7 24 -1
42 -9 20 -19 26 -45 26 -19 0 -37 -3 -40 -7z"/>
<path d="M3493 3078 c-18 -13 -33 -25 -33 -28 0 -3 9 -19 20 -37 18 -30 21
-31 49 -22 47 16 54 32 37 73 -17 42 -30 44 -73 14z"/>
<path d="M2404 3062 c-23 -15 -35 -51 -24 -73 9 -16 19 -19 48 -17 33 3 37 6
40 34 4 46 -32 78 -64 56z"/>
<path d="M3333 3015 c-38 -16 -41 -32 -13 -63 19 -20 23 -21 53 -9 27 12 31
18 28 43 -5 50 -13 53 -68 29z"/>
<path d="M3771 2957 c-19 -19 -13 -75 10 -87 30 -17 51 5 47 48 -3 38 -36 60
-57 39z"/>
<path d="M3180 2950 c-12 -8 -11 -10 7 -10 12 0 25 5 28 10 8 13 -15 13 -35 0z"/>
<path d="M3045 2900 c-23 -10 -22 -10 23 -16 30 -4 32 -2 18 11 -8 8 -16 15
-18 14 -2 0 -12 -4 -23 -9z"/>
<path d="M2840 2842 c-21 -21 -27 -35 -23 -55 6 -31 29 -35 73 -12 35 18 34
16 16 60 -18 42 -29 43 -66 7z"/>
<path d="M3028 2859 c-30 -17 -21 -32 14 -25 33 7 74 36 50 36 -7 0 -12 -5
-12 -12 0 -9 -3 -9 -12 0 -14 14 -18 14 -40 1z"/>
<path d="M3557 2836 c3 -16 10 -23 20 -19 18 7 13 37 -8 41 -13 2 -15 -3 -12
-22z"/>
<path d="M2685 2796 c-49 -21 -59 -39 -40 -75 18 -36 29 -38 72 -11 29 18 31
21 23 51 -13 45 -20 49 -55 35z"/>
<path d="M2491 2716 c-22 -23 -22 -25 -6 -56 14 -27 20 -31 43 -25 43 10 55
27 45 66 -12 44 -48 51 -82 15z"/>
<path d="M2345 2647 c-23 -17 -14 -63 15 -72 41 -13 79 29 60 66 -12 22 -48
25 -75 6z"/>
<path d="M10165 2446 c-22 -7 -53 -20 -70 -28 -16 -9 -93 -37 -170 -63 -145
-49 -399 -145 -496 -188 -30 -14 -93 -39 -140 -55 -106 -38 -182 -67 -334
-127 -66 -26 -167 -64 -225 -85 -58 -21 -154 -57 -215 -80 -60 -23 -171 -63
-245 -89 -74 -27 -202 -74 -285 -106 -82 -32 -190 -73 -240 -92 -142 -54 -235
-90 -305 -118 -36 -15 -110 -44 -165 -65 -55 -20 -127 -49 -160 -63 -33 -14
-130 -51 -215 -82 -85 -30 -186 -69 -225 -85 -38 -16 -133 -52 -210 -80 -273
-100 -332 -123 -515 -195 -102 -40 -246 -95 -320 -123 -74 -28 -205 -77 -290
-110 -85 -33 -209 -81 -275 -106 -66 -24 -192 -72 -280 -106 -88 -34 -189 -72
-225 -85 -169 -60 -511 -191 -590 -225 -36 -15 -83 -34 -105 -41 -22 -6 -58
-20 -80 -30 -39 -18 59 -19 3208 -19 l3247 0 0 1230 c0 1165 -1 1230 -17 1229
-10 0 -36 -6 -58 -13z"/>
</g>
</svg>
